# Blender 4.5.1 LTS
# www.blender.org
mtllib carrier.mtl
o Cube
v -7.000000 -3.872204 -10.260056
v -7.000000 2.675550 -10.299682
v -7.000000 -3.887167 -16.690134
v -7.000000 3.887167 -13.153397
v 7.000000 -3.872204 -10.260056
v 7.000000 2.675550 -10.299682
v 7.000000 -3.887167 -16.690134
v 7.000000 3.887167 -13.153397
vn 1.0000 -0.0000 -0.0000
vn -1.0000 -0.0000 -0.0000
vn -0.0000 1.0000 -0.0023
vn -0.0000 -0.4141 0.9102
vn -0.0000 -0.0061 -1.0000
vn -0.0000 -0.9205 -0.3908
vt 0.375000 0.000000
vt 0.375000 0.250000
vt 0.625000 0.250000
vt 0.625000 0.000000
s 0
f 1/1/1 3/2/1 4/3/1 2/4/1
f 5/1/2 6/4/2 8/3/2 7/2/2
f 3/2/3 1/1/3 5/1/3 7/2/3
f 4/3/4 3/2/4 7/2/4 8/3/4
f 1/1/5 2/4/5 6/4/5 5/1/5
f 2/4/6 4/3/6 8/3/6 6/4/6
o Cube.001
v -6.694201 -3.787616 12.773210
v -6.694201 -2.723972 12.773210
v -6.694201 -3.787616 -12.529199
v -6.694201 -2.723972 -12.529199
v 6.694201 -3.787616 12.773210
v 6.694201 -2.723972 12.773210
v 6.694201 -3.787616 -12.529199
v 6.694201 -2.723972 -12.529199
vn -1.0000 -0.0000 -0.0000
vn -0.0000 -0.0000 -1.0000
vn 1.0000 -0.0000 -0.0000
vn -0.0000 -0.0000 1.0000
vn -0.0000 -1.0000 -0.0000
vn -0.0000 1.0000 -0.0000
vt 0.375000 0.000000
vt 0.625000 0.000000
vt 0.625000 0.250000
vt 0.375000 0.250000
vt 0.625000 0.500000
vt 0.375000 0.500000
vt 0.625000 0.750000
vt 0.375000 0.750000
vt 0.625000 1.000000
vt 0.375000 1.000000
vt 0.125000 0.500000
vt 0.125000 0.750000
vt 0.875000 0.500000
vt 0.875000 0.750000
s 0
f 9/5/7 10/6/7 12/7/7 11/8/7
f 11/8/8 12/7/8 16/9/8 15/10/8
f 15/10/9 16/9/9 14/11/9 13/12/9
f 13/12/10 14/11/10 10/13/10 9/14/10
f 11/15/11 15/10/11 13/12/11 9/16/11
f 16/9/12 12/17/12 10/18/12 14/11/12
o Hull.001
v 0.000000 -3.887167 12.697859
v 0.000000 3.887167 12.697859
v 0.000000 -3.887167 18.388279
v 0.000000 0.210743 18.388279
v 0.000000 -3.887167 18.388279
v 0.000000 0.210743 18.388279
v -6.348929 -3.887167 12.697859
v -6.348929 3.887167 12.697859
v -3.884207 -3.887167 18.388279
v -3.884207 0.210743 18.388279
v -3.884207 -3.887167 18.388279
v -3.884207 0.210743 18.388279
vn -0.0000 0.8399 0.5427
vn -0.9176 -0.0000 0.3975
vn -0.0000 -1.0000 -0.0000
vn -0.0000 -0.0000 1.0000
vn 1.0000 -0.0000 -0.0000
vn -0.0000 -0.0000 -1.0000
vt 0.625000 0.000000
vt 0.375000 0.000000
vt 0.000000 0.000000
s 0
f 24/19/13 26/19/13 20/19/13 18/19/13
f 23/20/14 25/20/14 26/19/14 24/19/14
f 17/20/15 19/20/15 25/20/15 23/20/15
f 27/20/16 21/20/16 22/19/16 28/19/16
f 17/21/17 18/21/17 22/19/17 21/20/17
f 24/19/18 18/19/18 17/21/18 23/20/18
o Hull.002
v 6.348929 3.887167 12.697859
v 6.348929 3.887167 -12.697859
v 6.348929 2.891941 11.132689
v 6.348929 2.891941 -11.132689
v 0.000000 3.887167 12.697859
v 0.000000 3.887167 -12.697859
v 0.000000 2.891941 11.132689
v 0.000000 2.891941 -11.132689
v 6.408764 2.675550 10.299682
v 6.408764 2.675550 -10.299682
v 6.832166 3.596308 11.747737
v 6.832166 3.596308 -11.747737
v 9.437340 2.675550 10.299682
v 9.437340 2.675550 -10.299682
v 8.108518 3.596308 11.747737
v 8.108518 3.596308 -11.747737
v -6.348929 3.887167 12.697859
v -6.348929 3.887167 -12.697859
v -6.348929 2.891941 11.132689
v -6.348929 2.891941 -11.132689
v -6.408764 2.675550 10.299682
v -6.408764 2.675550 -10.299682
v -6.832166 3.596308 11.747737
v -6.832166 3.596308 -11.747737
v -9.437340 2.675550 10.299682
v -9.437340 2.675550 -10.299682
v -8.108518 3.596308 11.747737
v -8.108518 3.596308 -11.747737
vn 0.5157 0.8568 -0.0000
vn -0.0000 1.0000 -0.0000
vn -0.0000 -1.0000 -0.0000
vn -0.9638 -0.2665 -0.0000
vn 0.5695 0.8220 -0.0000
vn -0.0000 -0.8439 -0.5366
vn -0.0000 -0.8439 0.5366
vn -0.5157 0.8568 -0.0000
vn 0.9638 -0.2665 -0.0000
vn -0.5695 0.8220 -0.0000
vt 0.625000 0.250000
vt 0.625000 0.000000
vt 0.592996 0.234592
vt 0.592996 0.015408
s 0
f 30/22/19 29/23/19 39/23/19 40/22/19
f 29/23/20 30/22/20 34/22/20 33/23/20
f 32/24/21 31/25/21 35/25/21 36/24/21
f 40/22/20 39/23/20 43/23/20 44/22/20
f 31/25/22 32/24/22 38/24/22 37/25/22
f 42/24/23 44/22/23 43/23/23 41/25/23
f 37/25/21 38/24/21 42/24/21 41/25/21
f 38/24/24 40/22/24 44/22/24 42/24/24
f 39/23/25 37/25/25 41/25/25 43/23/25
f 46/22/26 52/22/26 51/23/26 45/23/26
f 45/23/20 33/23/20 34/22/20 46/22/20
f 48/24/21 36/24/21 35/25/21 47/25/21
f 52/22/20 56/22/20 55/23/20 51/23/20
f 47/25/27 49/25/27 50/24/27 48/24/27
f 54/24/28 53/25/28 55/23/28 56/22/28
f 49/25/21 53/25/21 54/24/21 50/24/21
f 50/24/24 54/24/24 56/22/24 52/22/24
f 51/23/25 55/23/25 53/25/25 49/25/25
o Hull.003
v 6.348929 -3.887167 12.697859
v 6.348929 3.887167 12.697859
v 6.348929 -2.891941 11.132689
v 6.348929 2.891941 11.132689
v 6.521128 -2.675550 10.912571
v 6.521128 2.675550 10.912571
v 6.832166 -3.596308 11.747737
v 6.832166 3.596308 11.747737
v 3.884207 -3.887167 18.388279
v 3.884207 0.210743 18.388279
v 3.021200 -3.538122 18.116432
v 3.021200 -0.232565 18.116432
vn 0.9371 -0.0000 -0.3490
vn 0.8913 -0.0000 0.4533
vn 0.9176 -0.0000 0.3975
vn -0.9028 -0.0000 -0.4302
vn -0.8166 0.5735 -0.0655
vn -0.3929 0.7429 -0.5420
vn -0.7876 -0.0000 -0.6162
vn -0.5652 -0.7694 -0.2975
vn -0.3929 -0.7429 -0.5420
vn -0.3004 -0.0000 0.9538
vt 0.592996 0.015408
vt 0.625000 0.000000
vt 0.375000 0.000000
vt 0.407004 0.015408
s 0
f 62/26/29 64/27/29 63/28/29 61/29/29
f 58/27/30 57/28/30 63/28/30 64/27/30
f 57/28/31 58/27/31 66/27/31 65/28/31
f 60/26/32 59/29/32 67/29/32 68/26/32
f 66/27/33 58/27/33 60/26/33 68/26/33
f 62/26/34 60/26/34 58/27/34 64/27/34
f 60/26/35 62/26/35 61/29/35 59/29/35
f 65/28/36 67/29/36 59/29/36 57/28/36
f 61/29/37 63/28/37 57/28/37 59/29/37
f 66/27/38 68/26/38 67/29/38 65/28/38
o Hull.004
v 6.348929 3.887167 12.697859
v 6.348929 2.891941 11.132689
v 0.000000 3.887167 12.697859
v 0.000000 2.891941 11.132689
v 3.884207 0.210743 18.388279
v 0.000000 0.210743 18.388279
v 3.021200 -0.232565 18.116432
v 0.000000 -0.232565 18.116432
vn -0.0000 0.8399 0.5427
vn -0.0000 -0.9128 -0.4084
vn -1.0000 -0.0000 -0.0000
vn -0.0000 -0.5228 0.8525
vn 0.8166 -0.5735 0.0655
vn -0.0000 0.8439 -0.5366
vt 0.625000 0.000000
vt 0.592996 0.015408
s 0
f 69/30/39 71/30/39 74/30/39 73/30/39
f 72/31/40 70/31/40 75/31/40 76/31/40
f 72/31/41 76/31/41 74/30/41 71/30/41
f 76/31/42 75/31/42 73/30/42 74/30/42
f 75/31/43 70/31/43 69/30/43 73/30/43
f 70/31/44 72/31/44 71/30/44 69/30/44
o Hull.005
v 3.884207 -3.887167 18.388279
v 3.884207 0.210743 18.388279
v 0.000000 -3.887167 18.388279
v 0.000000 0.210743 18.388279
v 3.021200 -3.538122 18.116432
v 3.021200 -0.232565 18.116432
v 0.000000 -3.538122 18.116432
v 0.000000 -0.232565 18.116432
vn -0.0000 -0.0000 1.0000
vn -0.0000 -0.0000 -1.0000
vn -0.0000 0.5228 -0.8525
vn -1.0000 -0.0000 -0.0000
vn -0.0000 -0.6145 -0.7889
vn 0.3004 -0.0000 -0.9538
vt 0.375000 0.000000
vt 0.625000 0.000000
vt 0.592996 0.015408
vt 0.407004 0.015408
s 0
f 77/32/45 78/33/45 80/33/45 79/32/45
f 82/34/46 81/35/46 83/35/46 84/34/46
f 82/34/47 84/34/47 80/33/47 78/33/47
f 84/34/48 83/35/48 79/32/48 80/33/48
f 83/35/49 81/35/49 77/32/49 79/32/49
f 81/35/50 82/34/50 78/33/50 77/32/50
o Hull.006
v 6.348929 -3.887167 12.697859
v 6.348929 -2.891941 11.132689
v 0.000000 -3.887167 12.697859
v 0.000000 -2.891941 11.132689
v 3.884207 -3.887167 18.388279
v 0.000000 -3.887167 18.388279
v 3.021200 -3.538122 18.116432
v 0.000000 -3.538122 18.116432
vn -0.0000 -1.0000 -0.0000
vn -0.0000 0.9957 0.0921
vn 0.5652 0.7694 0.2975
vn -0.0000 0.6145 0.7889
vn -1.0000 -0.0000 -0.0000
vn -0.0000 -0.8439 -0.5366
vt 0.375000 0.000000
vt 0.407004 0.015408
s 0
f 87/36/51 85/36/51 89/36/51 90/36/51
f 86/37/52 88/37/52 92/37/52 91/37/52
f 86/37/53 91/37/53 89/36/53 85/36/53
f 91/37/54 92/37/54 90/36/54 89/36/54
f 92/37/55 88/37/55 87/36/55 90/36/55
f 88/37/56 86/37/56 85/36/56 87/36/56
