# Blender 4.2.0
# www.blender.org
mtllib vehicles.mtl
o Cube
v 2.615734 -1.000000 0.000000
v 0.768786 -0.387841 1.000000
v -2.231214 -2.000000 0.000000
v -1.231214 -1.000000 1.000000
v 2.615734 1.000000 0.000000
v 0.768786 0.387841 1.000000
v -2.231214 2.000000 0.000000
v -1.231214 1.000000 1.000000
v 2.377721 -0.678248 0.270061
v 1.125032 -0.263052 0.948309
v 1.125032 0.263052 0.948309
v 2.377721 0.678249 0.270061
v -1.343980 -0.774468 0.887234
v -2.118448 -1.548936 0.112766
v -2.118448 1.548936 0.112766
v -1.343980 0.774468 0.887234
v -1.546648 -0.774468 0.887234
v -2.321116 -1.548936 0.112766
v -2.321116 1.548936 0.112766
v -1.546648 0.774468 0.887234
v -1.494034 -0.709459 0.854730
v -2.203494 -1.418918 0.145270
v -2.203494 1.418918 0.145270
v -1.494034 0.709459 0.854730
vn 0.1448 0.7020 0.6973
vn -0.7071 -0.0000 0.7071
vn 0.2439 0.7968 0.5529
vn 0.2887 -0.4812 0.8277
vn -0.0000 -0.0000 -1.0000
vn -0.0000 -0.0000 1.0000
vn 0.2439 -0.7968 0.5529
vn 0.1448 -0.7020 0.6973
vn 0.4761 -0.0000 0.8794
vn 0.7502 -0.0000 0.6612
vn 0.1436 -0.0000 0.9896
vn 0.2887 0.4812 0.8277
vn -0.5256 -0.0000 -0.8507
vn -0.0000 -0.7071 0.7071
vn -0.0000 0.7071 0.7071
vn -0.7499 0.6546 0.0953
vn -0.7499 -0.6546 0.0953
vn -0.2664 -0.0000 0.9639
vt 0.375000 0.750000
vt 0.375000 0.500000
vt 0.625000 0.750000
vt 0.625000 0.500000
vt 0.875000 0.750000
vt 0.375000 1.000000
vt 0.125000 0.500000
vt 0.125000 0.750000
vt 0.875000 0.500000
vt 0.625000 0.250000
vt 0.375000 0.250000
vt 0.625000 1.000000
s 0
f 5/1/1 7/2/1 6/3/1
f 8/4/2 7/2/2 15/2/2 16/4/2
f 7/2/3 8/4/3 6/3/3
f 2/5/4 1/6/4 9/6/4 10/5/4
f 3/7/5 7/2/5 5/1/5 1/8/5
f 8/4/6 4/9/6 2/5/6 6/3/6
f 4/10/7 3/11/7 2/5/7
f 3/11/8 1/6/8 2/5/8
f 12/1/9 11/3/9 10/12/9 9/6/9
f 1/8/10 5/1/10 12/1/10 9/8/10
f 6/3/11 2/5/11 10/5/11 11/3/11
f 5/1/12 6/3/12 11/3/12 12/1/12
f 15/2/5 14/7/5 18/7/5 19/2/5
f 7/2/2 3/7/2 14/7/2 15/2/2
f 4/9/2 8/4/2 16/4/2 13/9/2
f 3/11/2 4/10/2 13/10/2 14/11/2
f 17/9/13 20/4/13 24/4/13 21/9/13
f 13/9/6 16/4/6 20/4/6 17/9/6
f 14/11/14 13/10/14 17/10/14 18/11/14
f 16/4/15 15/2/15 19/2/15 20/4/15
f 22/11/2 21/10/2 24/4/2 23/2/2
f 18/11/16 17/10/16 21/10/16 22/11/16
f 20/4/17 19/2/17 23/2/17 24/4/17
f 19/2/18 18/7/18 22/7/18 23/2/18
