# Blender 4.2.0
# www.blender.org
mtllib hovercraft1.mtl
o Cylinder
v 35.337105 -7.549054 -1.000000
v 35.337105 -5.549054 -1.000000
v 35.532196 -7.549054 -0.980785
v 35.532196 -5.549054 -0.980785
v 35.719788 -7.549054 -0.923880
v 35.719788 -5.549054 -0.923880
v 35.892673 -7.549054 -0.831470
v 35.892673 -5.549054 -0.831470
v 36.044212 -7.549054 -0.707107
v 36.044212 -5.549054 -0.707107
v 36.168575 -7.549054 -0.555570
v 36.168575 -5.549054 -0.555570
v 36.260983 -7.549054 -0.382683
v 36.260983 -5.549054 -0.382683
v 36.317890 -7.549054 -0.195090
v 36.317890 -5.549054 -0.195090
v 36.337105 -7.549054 0.000000
v 36.337105 -5.549054 0.000000
v 36.317890 -7.549054 0.195090
v 36.317890 -5.549054 0.195090
v 36.260983 -7.549054 0.382683
v 36.260983 -5.549054 0.382683
v 36.168575 -7.549054 0.555570
v 36.168575 -5.549054 0.555570
v 36.044212 -7.549054 0.707107
v 36.044212 -5.549054 0.707107
v 35.892673 -7.549054 0.831470
v 35.892673 -5.549054 0.831470
v 35.719788 -7.549054 0.923880
v 35.719788 -5.549054 0.923880
v 35.532196 -7.549054 0.980785
v 35.532196 -5.549054 0.980785
v 35.337105 -7.549054 1.000000
v 35.337105 -5.549054 1.000000
v 35.142014 -7.549054 0.980785
v 35.142014 -5.549054 0.980785
v 34.954422 -7.549054 0.923880
v 34.954422 -5.549054 0.923880
v 34.781536 -7.549054 0.831470
v 34.781536 -5.549054 0.831470
v 34.629997 -7.549054 0.707107
v 34.629997 -5.549054 0.707107
v 34.505634 -7.549054 0.555570
v 34.505634 -5.549054 0.555570
v 34.413227 -7.549054 0.382683
v 34.413227 -5.549054 0.382683
v 34.356319 -7.549054 0.195090
v 34.356319 -5.549054 0.195090
v 34.337105 -7.549054 0.000000
v 34.337105 -5.549054 0.000000
v 34.356319 -7.549054 -0.195090
v 34.356319 -5.549054 -0.195090
v 34.413227 -7.549054 -0.382683
v 34.413227 -5.549054 -0.382683
v 34.505634 -7.549054 -0.555570
v 34.505634 -5.549054 -0.555570
v 34.629997 -7.549054 -0.707107
v 34.629997 -5.549054 -0.707107
v 34.781536 -7.549054 -0.831470
v 34.781536 -5.549054 -0.831470
v 34.954422 -7.549054 -0.923880
v 34.954422 -5.549054 -0.923880
v 35.142014 -7.549054 -0.980785
v 35.142014 -5.549054 -0.980785
v 35.337105 -2.236610 -1.748598
v 35.678238 -2.236610 -1.714999
v 36.006264 -2.236610 -1.615494
v 36.308575 -2.236610 -1.453906
v 36.573551 -2.236610 -1.236445
v 36.791012 -2.236610 -0.971469
v 36.952599 -2.236610 -0.669159
v 37.052105 -2.236610 -0.341134
v 37.085701 -2.236610 0.000000
v 37.052105 -2.236610 0.341134
v 36.952599 -2.236610 0.669159
v 36.791012 -2.236610 0.971469
v 36.573551 -2.236610 1.236445
v 36.308575 -2.236610 1.453906
v 36.006264 -2.236610 1.615494
v 35.678238 -2.236610 1.714999
v 35.337105 -2.236610 1.748598
v 34.995972 -2.236610 1.714999
v 34.667946 -2.236610 1.615494
v 34.365635 -2.236610 1.453906
v 34.100658 -2.236610 1.236445
v 33.883198 -2.236610 0.971469
v 33.721611 -2.236610 0.669159
v 33.622105 -2.236610 0.341134
v 33.588509 -2.236610 0.000000
v 33.622105 -2.236610 -0.341134
v 33.721611 -2.236610 -0.669159
v 33.883198 -2.236610 -0.971469
v 34.100658 -2.236610 -1.236445
v 34.365635 -2.236610 -1.453906
v 34.667946 -2.236610 -1.615494
v 34.995972 -2.236610 -1.714999
v 35.337105 2.616053 -1.748598
v 35.678238 2.616053 -1.714999
v 36.006264 2.616053 -1.615494
v 36.308575 2.616053 -1.453906
v 36.573551 2.616053 -1.236445
v 36.791012 2.616053 -0.971469
v 36.952599 2.616053 -0.669159
v 37.052105 2.616053 -0.341134
v 37.085701 2.616053 0.000000
v 37.052105 2.616053 0.341134
v 36.952599 2.616053 0.669159
v 36.791012 2.616053 0.971469
v 36.573551 2.616053 1.236445
v 36.308575 2.616053 1.453906
v 36.006264 2.616053 1.615494
v 35.678238 2.616053 1.714999
v 35.337105 2.616053 1.748598
v 34.995972 2.616053 1.714999
v 34.667946 2.616053 1.615494
v 34.365635 2.616053 1.453906
v 34.100658 2.616053 1.236445
v 33.883198 2.616053 0.971469
v 33.721611 2.616053 0.669159
v 33.622105 2.616053 0.341134
v 33.588509 2.616053 0.000000
v 33.622105 2.616053 -0.341134
v 33.721611 2.616053 -0.669159
v 33.883198 2.616053 -0.971469
v 34.100658 2.616053 -1.236445
v 34.365635 2.616053 -1.453906
v 34.667946 2.616053 -1.615494
v 34.995972 2.616053 -1.714999
v 35.337105 3.350813 -1.322506
v 35.595112 3.350813 -1.297094
v 35.843204 3.350813 -1.221836
v 36.071850 3.350813 -1.099624
v 36.272259 3.350813 -0.935153
v 36.436729 3.350813 -0.734745
v 36.558941 3.350813 -0.506101
v 36.634201 3.350813 -0.258008
v 36.659611 3.350813 -0.000000
v 36.634201 3.350813 0.258008
v 36.558941 3.350813 0.506101
v 36.436729 3.350813 0.734745
v 36.272259 3.350813 0.935153
v 36.071850 3.350813 1.099624
v 35.843204 3.350813 1.221836
v 35.595112 3.350813 1.297094
v 35.337105 3.350813 1.322506
v 35.079098 3.350813 1.297094
v 34.831005 3.350813 1.221836
v 34.602360 3.350813 1.099624
v 34.401951 3.350813 0.935153
v 34.237480 3.350813 0.734745
v 34.115269 3.350813 0.506101
v 34.040009 3.350813 0.258008
v 34.014599 3.350813 -0.000000
v 34.040009 3.350813 -0.258008
v 34.115269 3.350813 -0.506101
v 34.237480 3.350813 -0.734745
v 34.401951 3.350813 -0.935153
v 34.602360 3.350813 -1.099624
v 34.831005 3.350813 -1.221836
v 35.079098 3.350813 -1.297094
v 35.337105 -7.549054 -0.686806
v 35.471092 -7.549054 -0.673609
v 35.599934 -7.549054 -0.634526
v 35.718674 -7.549054 -0.571059
v 35.822750 -7.549054 -0.485645
v 35.908165 -7.549054 -0.381569
v 35.971630 -7.549054 -0.262829
v 36.010715 -7.549054 -0.133989
v 36.023911 -7.549054 -0.000000
v 36.010715 -7.549054 0.133989
v 35.971630 -7.549054 0.262829
v 35.908165 -7.549054 0.381569
v 35.822750 -7.549054 0.485645
v 35.718674 -7.549054 0.571059
v 35.599934 -7.549054 0.634526
v 35.471092 -7.549054 0.673609
v 35.337105 -7.549054 0.686806
v 35.203117 -7.549054 0.673609
v 35.074276 -7.549054 0.634526
v 34.955536 -7.549054 0.571059
v 34.851460 -7.549054 0.485645
v 34.766045 -7.549054 0.381569
v 34.702579 -7.549054 0.262829
v 34.663494 -7.549054 0.133989
v 34.650299 -7.549054 -0.000000
v 34.663494 -7.549054 -0.133989
v 34.702579 -7.549054 -0.262829
v 34.766045 -7.549054 -0.381569
v 34.851460 -7.549054 -0.485645
v 34.955536 -7.549054 -0.571059
v 35.074276 -7.549054 -0.634526
v 35.203117 -7.549054 -0.673609
v 35.337105 -3.513382 -0.686806
v 35.471092 -3.513382 -0.673609
v 35.599934 -3.513382 -0.634526
v 35.718674 -3.513382 -0.571059
v 35.822750 -3.513382 -0.485645
v 35.908165 -3.513382 -0.381569
v 35.971630 -3.513382 -0.262829
v 36.010715 -3.513382 -0.133989
v 36.023911 -3.513382 -0.000000
v 36.010715 -3.513382 0.133989
v 35.971630 -3.513382 0.262829
v 35.908165 -3.513382 0.381569
v 35.822750 -3.513382 0.485645
v 35.718674 -3.513382 0.571059
v 35.599934 -3.513382 0.634526
v 35.471092 -3.513382 0.673609
v 35.337105 -3.513382 0.686806
v 35.203117 -3.513382 0.673609
v 35.074276 -3.513382 0.634526
v 34.955536 -3.513382 0.571059
v 34.851460 -3.513382 0.485645
v 34.766045 -3.513382 0.381569
v 34.702579 -3.513382 0.262829
v 34.663494 -3.513382 0.133989
v 34.650299 -3.513382 -0.000000
v 34.663494 -3.513382 -0.133989
v 34.702579 -3.513382 -0.262829
v 34.766045 -3.513382 -0.381569
v 34.851460 -3.513382 -0.485645
v 34.955536 -3.513382 -0.571059
v 35.074276 -3.513382 -0.634526
v 35.203117 -3.513382 -0.673609
vn 0.0980 -0.0000 -0.9952
vn 0.2903 -0.0000 -0.9569
vn 0.4714 -0.0000 -0.8819
vn 0.6344 -0.0000 -0.7730
vn 0.7730 -0.0000 -0.6344
vn 0.8819 -0.0000 -0.4714
vn 0.9569 -0.0000 -0.2903
vn 0.9952 -0.0000 -0.0980
vn 0.9952 -0.0000 0.0980
vn 0.9569 -0.0000 0.2903
vn 0.8819 -0.0000 0.4714
vn 0.7730 -0.0000 0.6344
vn 0.6344 -0.0000 0.7730
vn 0.4714 -0.0000 0.8819
vn 0.2903 -0.0000 0.9569
vn 0.0980 -0.0000 0.9952
vn -0.0980 -0.0000 0.9952
vn -0.2903 -0.0000 0.9569
vn -0.4714 -0.0000 0.8819
vn -0.6344 -0.0000 0.7730
vn -0.7730 -0.0000 0.6344
vn -0.8819 -0.0000 0.4714
vn -0.9569 -0.0000 0.2903
vn -0.9952 -0.0000 0.0980
vn -0.9952 -0.0000 -0.0980
vn -0.9569 -0.0000 -0.2903
vn -0.8819 -0.0000 -0.4714
vn -0.7730 -0.0000 -0.6344
vn -0.6344 -0.0000 -0.7730
vn -0.4714 -0.0000 -0.8819
vn 0.7542 -0.2194 0.6189
vn -0.2903 -0.0000 -0.9569
vn -0.0980 -0.0000 -0.9952
vn -0.0000 -1.0000 -0.0000
vn -0.7542 -0.2194 0.6189
vn -0.4599 -0.2194 -0.8604
vn 0.9709 -0.2194 -0.0956
vn -0.0956 -0.2194 0.9709
vn -0.9336 -0.2194 -0.2832
vn 0.6189 -0.2194 -0.7542
vn 0.6189 -0.2194 0.7542
vn -0.8604 -0.2194 0.4599
vn -0.2832 -0.2194 -0.9336
vn 0.9709 -0.2194 0.0956
vn -0.2832 -0.2194 0.9336
vn -0.8604 -0.2194 -0.4599
vn 0.7542 -0.2194 -0.6189
vn 0.4599 -0.2194 0.8604
vn 0.0956 -0.2194 -0.9709
vn -0.9336 -0.2194 0.2832
vn -0.0956 -0.2194 -0.9709
vn 0.9336 -0.2194 0.2832
vn -0.4599 -0.2194 0.8604
vn -0.7542 -0.2194 -0.6189
vn 0.8604 -0.2194 -0.4599
vn 0.2832 -0.2194 0.9336
vn -0.9709 -0.2194 0.0956
vn 0.2832 -0.2194 -0.9336
vn 0.8604 -0.2194 0.4599
vn -0.6189 -0.2194 0.7542
vn -0.6189 -0.2194 -0.7542
vn 0.9336 -0.2194 -0.2832
vn 0.0956 -0.2194 0.9709
vn -0.9709 -0.2194 -0.0956
vn 0.4599 -0.2194 -0.8604
vn 0.8288 0.4998 0.2514
vn -0.0000 1.0000 -0.0000
vn -0.8619 0.4998 0.0849
vn 0.7638 0.4998 0.4083
vn -0.8619 0.4998 -0.0849
vn 0.6695 0.4998 0.5495
vn -0.8288 0.4998 -0.2514
vn 0.5495 0.4998 0.6695
vn -0.7638 0.4998 -0.4083
vn 0.4083 0.4998 0.7638
vn 0.0849 0.4998 -0.8619
vn -0.6695 0.4998 -0.5495
vn 0.2514 0.4998 0.8288
vn 0.2514 0.4998 -0.8288
vn -0.5495 0.4998 -0.6695
vn 0.0849 0.4998 0.8619
vn 0.4083 0.4998 -0.7638
vn -0.4083 0.4998 -0.7638
vn -0.0849 0.4998 0.8619
vn 0.5495 0.4998 -0.6695
vn -0.2514 0.4998 -0.8288
vn -0.2514 0.4998 0.8288
vn 0.6695 0.4998 -0.5495
vn -0.0849 0.4998 -0.8619
vn -0.4083 0.4998 0.7638
vn 0.7638 0.4998 -0.4083
vn -0.5495 0.4998 0.6695
vn 0.8288 0.4998 -0.2514
vn -0.6695 0.4998 0.5495
vn 0.8619 0.4998 -0.0849
vn -0.7638 0.4998 0.4083
vn 0.8619 0.4998 0.0849
vn -0.8288 0.4998 0.2514
vt 1.000000 0.500000
vt 1.000000 1.000000
vt 0.968750 1.000000
vt 0.968750 0.500000
vt 0.937500 1.000000
vt 0.937500 0.500000
vt 0.906250 1.000000
vt 0.906250 0.500000
vt 0.875000 1.000000
vt 0.875000 0.500000
vt 0.843750 1.000000
vt 0.843750 0.500000
vt 0.812500 1.000000
vt 0.812500 0.500000
vt 0.781250 1.000000
vt 0.781250 0.500000
vt 0.750000 1.000000
vt 0.750000 0.500000
vt 0.718750 1.000000
vt 0.718750 0.500000
vt 0.687500 1.000000
vt 0.687500 0.500000
vt 0.656250 1.000000
vt 0.656250 0.500000
vt 0.625000 1.000000
vt 0.625000 0.500000
vt 0.593750 1.000000
vt 0.593750 0.500000
vt 0.562500 1.000000
vt 0.562500 0.500000
vt 0.531250 1.000000
vt 0.531250 0.500000
vt 0.500000 1.000000
vt 0.500000 0.500000
vt 0.468750 1.000000
vt 0.468750 0.500000
vt 0.437500 1.000000
vt 0.437500 0.500000
vt 0.406250 1.000000
vt 0.406250 0.500000
vt 0.375000 1.000000
vt 0.375000 0.500000
vt 0.343750 1.000000
vt 0.343750 0.500000
vt 0.312500 1.000000
vt 0.312500 0.500000
vt 0.281250 1.000000
vt 0.281250 0.500000
vt 0.250000 1.000000
vt 0.250000 0.500000
vt 0.218750 1.000000
vt 0.218750 0.500000
vt 0.187500 1.000000
vt 0.187500 0.500000
vt 0.156250 1.000000
vt 0.156250 0.500000
vt 0.125000 1.000000
vt 0.125000 0.500000
vt 0.093750 1.000000
vt 0.093750 0.500000
vt 0.062500 1.000000
vt 0.062500 0.500000
vt 0.031250 1.000000
vt 0.031250 0.500000
vt 0.000000 1.000000
vt 0.000000 0.500000
vt 0.296822 0.485388
vt 0.250000 0.490000
vt 0.203178 0.485388
vt 0.158156 0.471731
vt 0.116663 0.449553
vt 0.080294 0.419706
vt 0.050447 0.383337
vt 0.028269 0.341844
vt 0.014612 0.296822
vt 0.010000 0.250000
vt 0.014612 0.203178
vt 0.028269 0.158156
vt 0.050447 0.116663
vt 0.080294 0.080294
vt 0.116663 0.050447
vt 0.158156 0.028269
vt 0.203178 0.014612
vt 0.250000 0.010000
vt 0.296822 0.014612
vt 0.341844 0.028269
vt 0.383337 0.050447
vt 0.419706 0.080294
vt 0.449553 0.116663
vt 0.471731 0.158156
vt 0.485388 0.203178
vt 0.490000 0.250000
vt 0.485388 0.296822
vt 0.471731 0.341844
vt 0.449553 0.383337
vt 0.419706 0.419706
vt 0.383337 0.449553
vt 0.341844 0.471731
vt 0.750000 0.490000
vt 0.796822 0.485388
vt 0.841844 0.471731
vt 0.883337 0.449553
vt 0.919706 0.419706
vt 0.949553 0.383337
vt 0.971731 0.341844
vt 0.985388 0.296822
vt 0.990000 0.250000
vt 0.985388 0.203178
vt 0.971731 0.158156
vt 0.949553 0.116663
vt 0.919706 0.080294
vt 0.883337 0.050447
vt 0.841844 0.028269
vt 0.796822 0.014612
vt 0.750000 0.010000
vt 0.703178 0.014612
vt 0.658156 0.028269
vt 0.616663 0.050447
vt 0.580294 0.080294
vt 0.550447 0.116663
vt 0.528269 0.158156
vt 0.514612 0.203178
vt 0.510000 0.250000
vt 0.514612 0.296822
vt 0.528269 0.341844
vt 0.550447 0.383337
vt 0.580294 0.419706
vt 0.616663 0.449553
vt 0.658156 0.471731
vt 0.703178 0.485388
s 0
f 1/1/1 2/2/1 4/3/1 3/4/1
f 3/4/2 4/3/2 6/5/2 5/6/2
f 5/6/3 6/5/3 8/7/3 7/8/3
f 7/8/4 8/7/4 10/9/4 9/10/4
f 9/10/5 10/9/5 12/11/5 11/12/5
f 11/12/6 12/11/6 14/13/6 13/14/6
f 13/14/7 14/13/7 16/15/7 15/16/7
f 15/16/8 16/15/8 18/17/8 17/18/8
f 17/18/9 18/17/9 20/19/9 19/20/9
f 19/20/10 20/19/10 22/21/10 21/22/10
f 21/22/11 22/21/11 24/23/11 23/24/11
f 23/24/12 24/23/12 26/25/12 25/26/12
f 25/26/13 26/25/13 28/27/13 27/28/13
f 27/28/14 28/27/14 30/29/14 29/30/14
f 29/30/15 30/29/15 32/31/15 31/32/15
f 31/32/16 32/31/16 34/33/16 33/34/16
f 33/34/17 34/33/17 36/35/17 35/36/17
f 35/36/18 36/35/18 38/37/18 37/38/18
f 37/38/19 38/37/19 40/39/19 39/40/19
f 39/40/20 40/39/20 42/41/20 41/42/20
f 41/42/21 42/41/21 44/43/21 43/44/21
f 43/44/22 44/43/22 46/45/22 45/46/22
f 45/46/23 46/45/23 48/47/23 47/48/23
f 47/48/24 48/47/24 50/49/24 49/50/24
f 49/50/25 50/49/25 52/51/25 51/52/25
f 51/52/26 52/51/26 54/53/26 53/54/26
f 53/54/27 54/53/27 56/55/27 55/56/27
f 55/56/28 56/55/28 58/57/28 57/58/28
f 57/58/29 58/57/29 60/59/29 59/60/29
f 59/60/30 60/59/30 62/61/30 61/62/30
f 26/25/31 24/23/31 76/23/31 77/25/31
f 61/62/32 62/61/32 64/63/32 63/64/32
f 63/64/33 64/63/33 2/65/33 1/66/33
f 15/16/34 17/18/34 169/18/34 168/16/34
f 72/15/7 71/13/7 103/13/7 104/15/7
f 44/43/35 42/41/35 85/41/35 86/43/35
f 62/61/36 60/59/36 94/59/36 95/61/36
f 18/17/37 16/15/37 72/15/37 73/17/37
f 36/35/38 34/33/38 81/33/38 82/35/38
f 54/53/39 52/51/39 90/51/39 91/53/39
f 10/9/40 8/7/40 68/7/40 69/9/40
f 28/27/41 26/25/41 77/25/41 78/27/41
f 46/45/42 44/43/42 86/43/42 87/45/42
f 64/63/43 62/61/43 95/61/43 96/63/43
f 20/19/44 18/17/44 73/17/44 74/19/44
f 38/37/45 36/35/45 82/35/45 83/37/45
f 56/55/46 54/53/46 91/53/46 92/55/46
f 12/11/47 10/9/47 69/9/47 70/11/47
f 30/29/48 28/27/48 78/27/48 79/29/48
f 4/3/49 2/2/49 65/2/49 66/3/49
f 48/47/50 46/45/50 87/45/50 88/47/50
f 2/65/51 64/63/51 96/63/51 65/65/51
f 22/21/52 20/19/52 74/19/52 75/21/52
f 40/39/53 38/37/53 83/37/53 84/39/53
f 58/57/54 56/55/54 92/55/54 93/57/54
f 14/13/55 12/11/55 70/11/55 71/13/55
f 32/31/56 30/29/56 79/29/56 80/31/56
f 50/49/57 48/47/57 88/47/57 89/49/57
f 6/5/58 4/3/58 66/3/58 67/5/58
f 24/23/59 22/21/59 75/21/59 76/23/59
f 42/41/60 40/39/60 84/39/60 85/41/60
f 60/59/61 58/57/61 93/57/61 94/59/61
f 16/15/62 14/13/62 71/13/62 72/15/62
f 34/33/63 32/31/63 80/31/63 81/33/63
f 52/51/64 50/49/64 89/49/64 90/51/64
f 8/7/65 6/5/65 67/5/65 68/7/65
f 107/21/66 106/19/66 138/19/66 139/21/66
f 86/43/21 85/41/21 117/41/21 118/43/21
f 73/17/8 72/15/8 104/15/8 105/17/8
f 87/45/22 86/43/22 118/43/22 119/45/22
f 74/19/9 73/17/9 105/17/9 106/19/9
f 88/47/23 87/45/23 119/45/23 120/47/23
f 75/21/10 74/19/10 106/19/10 107/21/10
f 89/49/24 88/47/24 120/47/24 121/49/24
f 76/23/11 75/21/11 107/21/11 108/23/11
f 90/51/25 89/49/25 121/49/25 122/51/25
f 77/25/12 76/23/12 108/23/12 109/25/12
f 91/53/26 90/51/26 122/51/26 123/53/26
f 78/27/13 77/25/13 109/25/13 110/27/13
f 92/55/27 91/53/27 123/53/27 124/55/27
f 79/29/14 78/27/14 110/27/14 111/29/14
f 66/3/1 65/2/1 97/2/1 98/3/1
f 93/57/28 92/55/28 124/55/28 125/57/28
f 80/31/15 79/29/15 111/29/15 112/31/15
f 67/5/2 66/3/2 98/3/2 99/5/2
f 94/59/29 93/57/29 125/57/29 126/59/29
f 81/33/16 80/31/16 112/31/16 113/33/16
f 68/7/3 67/5/3 99/5/3 100/7/3
f 95/61/30 94/59/30 126/59/30 127/61/30
f 82/35/17 81/33/17 113/33/17 114/35/17
f 69/9/4 68/7/4 100/7/4 101/9/4
f 96/63/32 95/61/32 127/61/32 128/63/32
f 83/37/18 82/35/18 114/35/18 115/37/18
f 70/11/5 69/9/5 101/9/5 102/11/5
f 65/65/33 96/63/33 128/63/33 97/65/33
f 84/39/19 83/37/19 115/37/19 116/39/19
f 71/13/6 70/11/6 102/11/6 103/13/6
f 85/41/20 84/39/20 116/39/20 117/41/20
f 130/67/67 129/68/67 160/69/67 159/70/67 158/71/67 157/72/67 156/73/67 155/74/67 154/75/67 153/76/67 152/77/67 151/78/67 150/79/67 149/80/67 148/81/67 147/82/67 146/83/67 145/84/67 144/85/67 143/86/67 142/87/67 141/88/67 140/89/67 139/90/67 138/91/67 137/92/67 136/93/67 135/94/67 134/95/67 133/96/67 132/97/67 131/98/67
f 121/49/68 120/47/68 152/47/68 153/49/68
f 108/23/69 107/21/69 139/21/69 140/23/69
f 122/51/70 121/49/70 153/49/70 154/51/70
f 109/25/71 108/23/71 140/23/71 141/25/71
f 123/53/72 122/51/72 154/51/72 155/53/72
f 110/27/73 109/25/73 141/25/73 142/27/73
f 124/55/74 123/53/74 155/53/74 156/55/74
f 111/29/75 110/27/75 142/27/75 143/29/75
f 98/3/76 97/2/76 129/2/76 130/3/76
f 125/57/77 124/55/77 156/55/77 157/57/77
f 112/31/78 111/29/78 143/29/78 144/31/78
f 99/5/79 98/3/79 130/3/79 131/5/79
f 126/59/80 125/57/80 157/57/80 158/59/80
f 113/33/81 112/31/81 144/31/81 145/33/81
f 100/7/82 99/5/82 131/5/82 132/7/82
f 127/61/83 126/59/83 158/59/83 159/61/83
f 114/35/84 113/33/84 145/33/84 146/35/84
f 101/9/85 100/7/85 132/7/85 133/9/85
f 128/63/86 127/61/86 159/61/86 160/63/86
f 115/37/87 114/35/87 146/35/87 147/37/87
f 102/11/88 101/9/88 133/9/88 134/11/88
f 97/65/89 128/63/89 160/63/89 129/65/89
f 116/39/90 115/37/90 147/37/90 148/39/90
f 103/13/91 102/11/91 134/11/91 135/13/91
f 117/41/92 116/39/92 148/39/92 149/41/92
f 104/15/93 103/13/93 135/13/93 136/15/93
f 118/43/94 117/41/94 149/41/94 150/43/94
f 105/17/95 104/15/95 136/15/95 137/17/95
f 119/45/96 118/43/96 150/43/96 151/45/96
f 106/19/97 105/17/97 137/17/97 138/19/97
f 120/47/98 119/45/98 151/45/98 152/47/98
f 176/32/33 177/34/33 209/34/33 208/32/33
f 33/34/34 35/36/34 178/36/34 177/34/34
f 51/52/34 53/54/34 187/54/34 186/52/34
f 7/8/34 9/10/34 165/10/34 164/8/34
f 25/26/34 27/28/34 174/28/34 173/26/34
f 43/44/34 45/46/34 183/46/34 182/44/34
f 61/62/34 63/64/34 192/64/34 191/62/34
f 17/18/34 19/20/34 170/20/34 169/18/34
f 35/36/34 37/38/34 179/38/34 178/36/34
f 53/54/34 55/56/34 188/56/34 187/54/34
f 9/10/34 11/12/34 166/12/34 165/10/34
f 27/28/34 29/30/34 175/30/34 174/28/34
f 45/46/34 47/48/34 184/48/34 183/46/34
f 1/1/34 3/4/34 162/4/34 161/1/34
f 63/64/34 1/66/34 161/66/34 192/64/34
f 19/20/34 21/22/34 171/22/34 170/20/34
f 37/38/34 39/40/34 180/40/34 179/38/34
f 55/56/34 57/58/34 189/58/34 188/56/34
f 11/12/34 13/14/34 167/14/34 166/12/34
f 29/30/34 31/32/34 176/32/34 175/30/34
f 47/48/34 49/50/34 185/50/34 184/48/34
f 3/4/34 5/6/34 163/6/34 162/4/34
f 21/22/34 23/24/34 172/24/34 171/22/34
f 39/40/34 41/42/34 181/42/34 180/40/34
f 57/58/34 59/60/34 190/60/34 189/58/34
f 13/14/34 15/16/34 168/16/34 167/14/34
f 31/32/34 33/34/34 177/34/34 176/32/34
f 49/50/34 51/52/34 186/52/34 185/50/34
f 5/6/34 7/8/34 164/8/34 163/6/34
f 23/24/34 25/26/34 173/26/34 172/24/34
f 41/42/34 43/44/34 182/44/34 181/42/34
f 59/60/34 61/62/34 191/62/34 190/60/34
f 193/99/34 194/100/34 195/101/34 196/102/34 197/103/34 198/104/34 199/105/34 200/106/34 201/107/34 202/108/34 203/109/34 204/110/34 205/111/34 206/112/34 207/113/34 208/114/34 209/115/34 210/116/34 211/117/34 212/118/34 213/119/34 214/120/34 215/121/34 216/122/34 217/123/34 218/124/34 219/125/34 220/126/34 221/127/34 222/128/34 223/129/34 224/130/34
f 163/6/19 164/8/19 196/8/19 195/6/19
f 190/60/14 191/62/14 223/62/14 222/60/14
f 177/34/1 178/36/1 210/36/1 209/34/1
f 164/8/20 165/10/20 197/10/20 196/8/20
f 191/62/15 192/64/15 224/64/15 223/62/15
f 178/36/2 179/38/2 211/38/2 210/36/2
f 165/10/21 166/12/21 198/12/21 197/10/21
f 192/64/16 161/66/16 193/66/16 224/64/16
f 179/38/3 180/40/3 212/40/3 211/38/3
f 166/12/22 167/14/22 199/14/22 198/12/22
f 180/40/4 181/42/4 213/42/4 212/40/4
f 167/14/23 168/16/23 200/16/23 199/14/23
f 181/42/5 182/44/5 214/44/5 213/42/5
f 168/16/24 169/18/24 201/18/24 200/16/24
f 182/44/6 183/46/6 215/46/6 214/44/6
f 169/18/25 170/20/25 202/20/25 201/18/25
f 183/46/7 184/48/7 216/48/7 215/46/7
f 170/20/26 171/22/26 203/22/26 202/20/26
f 184/48/8 185/50/8 217/50/8 216/48/8
f 171/22/27 172/24/27 204/24/27 203/22/27
f 185/50/9 186/52/9 218/52/9 217/50/9
f 172/24/28 173/26/28 205/26/28 204/24/28
f 186/52/10 187/54/10 219/54/10 218/52/10
f 173/26/29 174/28/29 206/28/29 205/26/29
f 187/54/11 188/56/11 220/56/11 219/54/11
f 174/28/30 175/30/30 207/30/30 206/28/30
f 161/1/17 162/4/17 194/4/17 193/1/17
f 188/56/12 189/58/12 221/58/12 220/56/12
f 175/30/32 176/32/32 208/32/32 207/30/32
f 162/4/18 163/6/18 195/6/18 194/4/18
f 189/58/13 190/60/13 222/60/13 221/58/13
o Cube
v 1.000000 0.000000 -2.615734
v 0.387841 1.000000 -0.768786
v 2.000000 0.000000 2.231214
v 1.000000 1.000000 1.231214
v -1.000000 0.000000 -2.615734
v -0.387841 1.000000 -0.768786
v -2.000000 0.000000 2.231214
v -1.000000 1.000000 1.231214
v 0.678248 0.270061 -2.377721
v 0.263052 0.948309 -1.125032
v -0.263052 0.948309 -1.125032
v -0.678249 0.270061 -2.377721
v 0.774468 0.887234 1.343980
v 1.548936 0.112766 2.118448
v -1.548936 0.112766 2.118448
v -0.774468 0.887234 1.343980
v 0.774468 0.887234 1.546648
v 1.548936 0.112766 2.321116
v -1.548936 0.112766 2.321116
v -0.774468 0.887234 1.546648
v 0.709459 0.854730 1.494034
v 1.418918 0.145270 2.203494
v -1.418918 0.145270 2.203494
v -0.709459 0.854730 1.494034
vn -0.7020 0.6973 -0.1448
vn -0.0000 0.7071 0.7071
vn -0.7968 0.5529 -0.2439
vn 0.4812 0.8277 -0.2887
vn -0.0000 -1.0000 -0.0000
vn -0.0000 1.0000 -0.0000
vn 0.7968 0.5529 -0.2439
vn 0.7020 0.6973 -0.1448
vn -0.0000 0.8794 -0.4761
vn -0.0000 0.6612 -0.7502
vn -0.0000 0.9896 -0.1436
vn -0.4812 0.8277 -0.2887
vn -0.0000 -0.8507 0.5256
vn 0.7071 0.7071 -0.0000
vn -0.7071 0.7071 -0.0000
vn -0.6546 0.0953 0.7499
vn 0.6546 0.0953 0.7499
vn -0.0000 0.9639 0.2664
vt 0.375000 0.750000
vt 0.375000 0.500000
vt 0.625000 0.750000
vt 0.625000 0.500000
vt 0.875000 0.750000
vt 0.375000 1.000000
vt 0.125000 0.500000
vt 0.125000 0.750000
vt 0.875000 0.500000
vt 0.625000 0.250000
vt 0.375000 0.250000
vt 0.625000 1.000000
s 0
f 229/131/99 231/132/99 230/133/99
f 232/134/100 231/132/100 239/132/100 240/134/100
f 231/132/101 232/134/101 230/133/101
f 226/135/102 225/136/102 233/136/102 234/135/102
f 227/137/103 231/132/103 229/131/103 225/138/103
f 232/134/104 228/139/104 226/135/104 230/133/104
f 228/140/105 227/141/105 226/135/105
f 227/141/106 225/136/106 226/135/106
f 236/131/107 235/133/107 234/142/107 233/136/107
f 225/138/108 229/131/108 236/131/108 233/138/108
f 230/133/109 226/135/109 234/135/109 235/133/109
f 229/131/110 230/133/110 235/133/110 236/131/110
f 239/132/103 238/137/103 242/137/103 243/132/103
f 231/132/100 227/137/100 238/137/100 239/132/100
f 228/139/100 232/134/100 240/134/100 237/139/100
f 227/141/100 228/140/100 237/140/100 238/141/100
f 241/139/111 244/134/111 248/134/111 245/139/111
f 237/139/104 240/134/104 244/134/104 241/139/104
f 238/141/112 237/140/112 241/140/112 242/141/112
f 240/134/113 239/132/113 243/132/113 244/134/113
f 246/141/100 245/140/100 248/134/100 247/132/100
f 242/141/114 241/140/114 245/140/114 246/141/114
f 244/134/115 243/132/115 247/132/115 248/134/115
f 243/132/116 242/137/116 246/137/116 247/132/116
