# Blender 5.1.0
# www.blender.org
mtllib shape-cube-recentered-collision.mtl
o shape-cube
v -0.500000 -0.500000 -0.500000
v 0.500000 -0.500000 -0.500000
v -0.500000 0.500000 -0.500000
v 0.500000 0.500000 -0.500000
v -0.500000 -0.500000 -0.500000
v -0.500000 0.500000 -0.500000
v -0.500000 -0.500000 0.500000
v -0.500000 0.500000 0.500000
v 0.500000 -0.500000 0.500000
v 0.500000 -0.500000 -0.500000
v -0.500000 -0.500000 0.500000
v -0.500000 -0.500000 -0.500000
v 0.500000 -0.500000 0.500000
v -0.500000 -0.500000 0.500000
v 0.500000 0.500000 0.500000
v -0.500000 0.500000 0.500000
v 0.500000 0.500000 -0.500000
v 0.500000 -0.500000 -0.500000
v 0.500000 0.500000 0.500000
v 0.500000 -0.500000 0.500000
v 0.500000 0.500000 -0.500000
v 0.500000 0.500000 0.500000
v -0.500000 0.500000 -0.500000
v -0.500000 0.500000 0.500000
vn -0.0000 -0.0000 -1.0000
vn -1.0000 -0.0000 -0.0000
vn -0.0000 -1.0000 -0.0000
vn -0.0000 -0.0000 1.0000
vn 1.0000 -0.0000 -0.0000
vn -0.0000 1.0000 -0.0000
vt 0.468750 0.225000
vt 0.468750 0.025000
s 0
usemtl colormap.004
f 3/1/1 2/2/1 1/2/1
f 2/2/1 3/1/1 4/1/1
f 7/2/2 6/1/2 5/2/2
f 6/1/2 7/2/2 8/1/2
f 11/2/3 10/2/3 9/2/3
f 10/2/3 11/2/3 12/2/3
f 15/1/4 14/2/4 13/2/4
f 14/2/4 15/1/4 16/1/4
f 19/1/5 18/2/5 17/1/5
f 18/2/5 19/1/5 20/2/5
f 23/1/6 22/1/6 21/1/6
f 22/1/6 23/1/6 24/1/6
