# Blender 3.6.2
# www.blender.org
o Circle
v 0.000000 0.000000 -0.182010
v -0.157625 0.000000 -0.091005
v -0.157625 0.000000 0.091005
v 0.000000 0.000000 0.182010
v 0.157625 0.000000 0.091005
v 0.157625 0.000000 -0.091005
v 0.000000 3.697179 -0.061468
v -0.053233 3.697179 -0.030734
v -0.053233 3.697179 0.030734
v 0.000000 3.697179 0.061468
v 0.053233 3.697179 0.030734
v 0.053233 3.697179 -0.030734
v -0.053233 3.697179 -0.030734
v 0.000000 3.697179 -0.061468
v -0.053233 3.697179 0.030734
v 0.000000 3.697179 0.061468
v 0.053233 3.697179 0.030734
v 0.053233 3.697179 -0.030734
v 0.000000 3.842623 0.000000
v -0.157625 3.326135 -0.091005
v 0.000000 3.326135 -0.182010
v -0.157625 3.326135 0.091005
v 0.000000 3.326135 0.182010
v 0.157625 3.326135 0.091005
v 0.157625 3.326135 -0.091005
v -0.157625 0.239252 -0.091005
v 0.000000 0.239252 -0.182010
v -0.157625 0.239252 0.091005
v 0.000000 0.239252 0.182010
v 0.157625 0.239252 0.091005
v 0.157625 0.239252 -0.091005
v -0.157625 0.686817 -0.091005
v 0.000000 0.686817 -0.182010
v -0.157625 0.686817 0.091005
v 0.000000 0.686817 0.182010
v 0.157625 0.686817 0.091005
v 0.157625 0.686817 -0.091005
vn -0.0000 1.0000 -0.0000
vn 0.4813 -0.2708 0.8337
vn -0.4813 -0.2708 0.8337
vn 0.9626 -0.2708 -0.0000
vn 0.4813 -0.2708 -0.8337
vn -0.4813 -0.2708 -0.8337
vn -0.9626 -0.2708 -0.0000
vn -0.9391 -0.3437 -0.0000
vn 0.4695 -0.3437 -0.8133
vn -0.4695 -0.3437 0.8133
vn -0.4695 -0.3437 -0.8133
vn 0.9391 -0.3437 -0.0000
vn 0.4695 -0.3437 0.8133
vn -1.0000 -0.0000 -0.0000
vn -0.5000 -0.0000 -0.8660
vn 0.5000 -0.0000 -0.8660
vn 1.0000 -0.0000 -0.0000
vn -0.5000 -0.0000 0.8660
vn 0.5000 -0.0000 0.8660
vt 0.176334 0.596246
vt 0.189137 0.603638
vt 0.201941 0.596246
vt 0.201941 0.581462
vt 0.189137 0.574070
vt 0.176334 0.581462
vt 0.151226 0.845935
vt 0.189137 0.845935
vt 0.189137 0.935177
vt 0.176334 0.935177
vt 0.227049 0.845935
vt 0.201941 0.935177
vt 0.167249 0.845935
vt 0.211026 0.845935
vt 0.196529 0.935177
vt 0.181745 0.935177
vt 0.189137 0.970159
vt 0.211026 0.211131
vt 0.167249 0.211131
vt 0.227049 0.211131
vt 0.189137 0.211131
vt 0.151226 0.211131
vt 0.151226 0.045939
vt 0.189137 0.045939
vt 0.189137 0.103484
vt 0.151226 0.103484
vt 0.227049 0.045939
vt 0.227049 0.103484
vt 0.167249 0.045939
vt 0.211026 0.045939
vt 0.211026 0.103484
vt 0.167249 0.103484
s 0
f 13/1/1 14/2/1 7/2/1 8/1/1
f 14/2/1 18/3/1 12/3/1 7/2/1
f 17/4/1 16/5/1 10/5/1 11/4/1
f 15/6/1 13/1/1 8/1/1 9/6/1
f 18/3/1 17/4/1 11/4/1 12/3/1
f 16/5/1 15/6/1 9/6/1 10/5/1
f 20/7/2 21/8/2 14/9/2 13/10/2
f 21/8/3 25/11/3 18/12/3 14/9/3
f 22/13/4 20/14/4 13/15/4 15/16/4
f 23/8/5 22/7/5 15/10/5 16/9/5
f 24/11/6 23/8/6 16/9/6 17/12/6
f 25/14/7 24/13/7 17/16/7 18/15/7
f 18/15/8 17/16/8 19/17/8
f 16/9/9 15/10/9 19/17/9
f 14/9/10 18/12/10 19/17/10
f 17/12/11 16/9/11 19/17/11
f 15/16/12 13/15/12 19/17/12
f 13/10/13 14/9/13 19/17/13
f 37/18/14 36/19/14 24/13/14 25/14/14
f 36/20/15 35/21/15 23/8/15 24/11/15
f 35/21/16 34/22/16 22/7/16 23/8/16
f 34/19/17 32/18/17 20/14/17 22/13/17
f 33/21/18 37/20/18 25/11/18 21/8/18
f 32/22/19 33/21/19 21/8/19 20/7/19
f 2/23/19 1/24/19 27/25/19 26/26/19
f 1/24/18 6/27/18 31/28/18 27/25/18
f 3/29/17 2/30/17 26/31/17 28/32/17
f 4/24/16 3/23/16 28/26/16 29/25/16
f 5/27/15 4/24/15 29/25/15 30/28/15
f 6/30/14 5/29/14 30/32/14 31/31/14
f 26/26/19 27/25/19 33/21/19 32/22/19
f 27/25/18 31/28/18 37/20/18 33/21/18
f 28/32/17 26/31/17 32/18/17 34/19/17
f 29/25/16 28/26/16 34/22/16 35/21/16
f 30/28/15 29/25/15 35/21/15 36/20/15
f 31/31/14 30/32/14 36/19/14 37/18/14
