# Blender 4.2.0
# www.blender.org
mtllib spaceship2.mtl
o Cube.001
v -1.000000 -1.000000 1.000000
v -1.000000 1.000000 1.000000
v -1.000000 -1.000000 -1.000000
v -1.000000 1.000000 -1.000000
v 1.000000 -1.000000 1.000000
v 1.000000 1.000000 1.000000
v 1.000000 -1.000000 -1.000000
v 1.000000 1.000000 -1.000000
v 1.000000 0.695191 -0.695191
v 1.000000 -0.695191 -0.695191
v 1.000000 -0.695191 0.695191
v 1.000000 0.695191 0.695191
v -0.858828 0.695191 -0.695191
v -0.858828 -0.695191 -0.695191
v -0.858828 -0.695191 0.695191
v -0.858828 0.695191 0.695191
v -0.500000 -0.100000 1.000000
v -0.500000 0.100000 1.000000
v -0.500000 0.100000 -1.000000
v -0.500000 -0.100000 -1.000000
v 0.500000 -0.100000 -1.000000
v 0.500000 0.100000 -1.000000
v 0.500000 0.100000 1.000000
v 0.500000 -0.100000 1.000000
v -0.500000 -0.100000 3.000000
v -0.500000 0.100000 3.000000
v 0.500000 0.100000 3.000000
v 0.500000 -0.100000 3.000000
v -0.500000 0.100000 -3.000000
v -0.500000 -0.100000 -3.000000
v 0.500000 -0.100000 -3.000000
v 0.500000 0.100000 -3.000000
v -2.000000 -0.312016 -0.312016
v -2.000000 -0.312016 0.312016
v -2.000000 0.312016 0.312016
v -2.000000 0.312016 -0.312016
vn -0.5668 -0.0000 -0.8239
vn -0.0000 -0.0000 1.0000
vn 1.0000 -0.0000 -0.0000
vn -0.0000 -0.0000 -1.0000
vn -0.0000 -1.0000 -0.0000
vn -0.0000 1.0000 -0.0000
vn 0.3183 -0.0000 -0.9480
vn -1.0000 -0.0000 -0.0000
vn 0.3183 -0.9480 -0.0000
vn -0.5668 -0.0000 0.8239
vn -0.5668 0.8239 -0.0000
vn -0.5668 -0.8239 -0.0000
vn 0.3183 -0.0000 0.9480
vn 0.3183 0.9480 -0.0000
vt 0.625000 0.250000
vt 0.375000 0.250000
vt 0.625000 0.000000
vt 0.375000 0.000000
vt 0.625000 0.500000
vt 0.625000 0.750000
vt 0.125000 0.500000
vt 0.375000 0.500000
vt 0.375000 0.750000
vt 0.125000 0.750000
vt 0.875000 0.500000
vt 0.875000 0.750000
vt 0.625000 1.000000
vt 0.375000 1.000000
s 0
f 4/1/1 3/2/1 33/2/1 36/1/1
f 2/3/2 1/4/2 17/4/2 18/3/2
f 8/5/3 6/6/3 12/6/3 9/5/3
f 3/2/4 4/1/4 19/1/4 20/2/4
f 3/7/5 7/8/5 5/9/5 1/10/5
f 8/5/6 4/11/6 2/12/6 6/6/6
f 9/5/5 12/6/5 16/6/5 13/5/5
f 7/8/3 8/5/3 9/5/3 10/8/3
f 6/6/3 5/9/3 11/9/3 12/6/3
f 5/9/3 7/8/3 10/8/3 11/9/3
f 16/6/7 15/9/7 34/4/7 35/12/7
f 10/8/2 9/5/2 13/5/2 14/8/2
f 12/6/4 11/9/4 15/9/4 16/6/4
f 11/9/6 10/8/6 14/8/6 15/9/6
f 22/5/3 21/8/3 31/8/3 32/5/3
f 17/10/5 24/9/5 28/9/5 25/10/5
f 1/10/2 5/9/2 24/9/2 17/10/2
f 8/5/4 7/8/4 21/8/4 22/5/4
f 7/8/4 3/7/4 20/7/4 21/8/4
f 6/6/2 2/12/2 18/12/2 23/6/2
f 5/9/2 6/6/2 23/6/2 24/9/2
f 4/11/4 8/5/4 22/5/4 19/11/4
f 28/9/2 27/6/2 26/13/2 25/14/2
f 18/3/8 17/4/8 25/4/8 26/3/8
f 23/6/6 18/12/6 26/12/6 27/6/6
f 24/9/3 23/6/3 27/6/3 28/9/3
f 30/2/4 29/1/4 32/5/4 31/8/4
f 21/8/5 20/7/5 30/7/5 31/8/5
f 19/11/6 22/5/6 32/5/6 29/11/6
f 20/2/8 19/1/8 29/1/8 30/2/8
f 13/5/9 16/6/9 35/12/9 36/11/9
f 1/4/10 2/3/10 35/3/10 34/4/10
f 2/12/11 4/11/11 36/11/11 35/12/11
f 3/7/12 1/10/12 34/10/12 33/7/12
f 14/8/13 13/5/13 36/1/13 33/2/13
f 15/9/14 14/8/14 33/7/14 34/4/14
