# Blender 5.1.1
# www.blender.org
mtllib placeholder_jetpack.mtl
o Cube
v -0.253268 -0.199562 -0.002666
v -0.253268 -0.199562 -0.179763
v -0.284872 0.171278 -0.189662
v 0.253268 -0.199562 -0.002666
v 0.253268 -0.199562 -0.179763
v 0.284872 0.171278 -0.189662
v -0.135320 -0.027032 0.152894
v 0.135320 -0.027032 0.152894
v -0.059257 0.396677 -0.032364
v 0.059257 0.396677 -0.032364
v -0.276208 0.132770 -0.004838
v 0.278602 0.132770 -0.004838
vn -0.0000 -0.0267 -0.9996
vn -0.0000 -1.0000 -0.0000
vn -0.0000 0.5723 -0.8201
vn -0.0000 -0.6696 0.7427
vn -0.0000 0.4006 0.9162
vn 0.9967 -0.0806 0.0087
vn 0.7658 -0.0542 0.6408
vn 0.7510 0.6408 0.1590
vn 0.4116 0.4261 0.8056
vn -0.7529 0.6364 0.1679
vn -0.4162 0.4260 0.8033
vn -0.9969 -0.0771 0.0157
vn -0.7690 -0.0489 0.6373
vt 0.375000 0.250000
vt 0.625000 0.250000
vt 0.625000 0.500000
vt 0.375000 0.500000
vt 0.125000 0.500000
vt 0.375000 0.750000
vt 0.125000 0.750000
vt 0.875000 0.500000
vt 0.875000 0.750000
vt 0.625000 0.750000
vt 0.000000 0.000000
s 0
f 2/1/1 3/2/1 6/3/1 5/4/1
f 2/5/2 5/4/2 4/6/2 1/7/2
f 6/3/3 3/8/3 9/9/3 10/10/3
f 1/7/4 4/6/4 8/6/4 7/7/4
f 7/7/5 8/6/5 10/6/5 9/7/5
f 5/4/6 6/3/6 12/11/6 4/6/6
f 4/6/7 12/11/7 8/6/7
f 6/3/8 10/10/8 12/11/8
f 10/10/9 8/6/9 12/11/9
f 11/11/10 9/9/10 3/8/10
f 9/9/11 11/11/11 7/7/11
f 1/7/12 11/11/12 3/8/12 2/1/12
f 1/7/13 7/7/13 11/11/13
