o hull_0
v -249.99996948242188 980.7852783203126 195.09036254882815
v -243.82050052988632 958.655379805423 176.02315318020516
v 242.7578234154061 954.3630023033329 176.02315318020516
v -173.65710159056187 954.3630061859033 176.02315318020516
v -242.75773620605472 954.3630071523244 176.02315318020516
v -249.99997547671447 983.6136253411473 176.02315318020516
v 250.0000855584523 983.6136203697195 176.02315318020516
v 250.00009155273438 980.7852783203126 195.09033203125
v 250.00010681152347 956.9403686523438 290.2846984863282
v -246.63169592650777 929.1169640608247 328.1019340188455
v -249.99995422363284 956.9403686523438 290.2847595214844
v 242.75784316280357 929.1169640608247 282.1601007487252
v -242.75769038127902 929.1169640608247 282.1601617838815
v -249.99992854060076 929.1169640608247 368.04584073219013
v 250.00013249455554 929.1169640608247 368.0457796970339
f 11 6 14
f 5 4 12
f 9 11 14
f 1 6 11
f 3 12 4
f 13 5 12
f 2 5 14
f 2 14 6
f 2 6 7
f 2 7 3
f 2 3 4
f 2 4 5
f 15 9 14
f 15 12 3
f 15 3 7
f 8 1 11
f 8 11 9
f 8 9 15
f 8 15 7
f 8 7 6
f 8 6 1
f 10 13 12
f 10 12 15
f 10 15 14
f 10 14 5
f 10 5 13
o hull_1
v 248.38077495496313 989.7842335970377 76.10168392141448
v 250.00006103515628 995.1846923828125 98.01713562011719
v 242.75779418296815 967.292429106498 76.10168392141448
v -250.00000000000003 995.1846923828125 98.01718139648438
v -242.75774538080472 967.2924313073323 76.10168392141448
v -250.00000682337568 996.2613391818417 76.10168392141448
v 250.00005421179463 996.2613369731389 76.10168392141448
v -138.2058543631394 996.2613387191836 76.10168392141448
v 250.0000855584523 983.6136203697195 176.02315318020516
v -249.99997547671447 983.6136253411473 176.02315318020516
v -242.75773620605472 954.3630071523244 176.02315318020516
v -243.82050052988632 958.655379805423 176.02315318020516
v 242.7578234154061 954.3630023033329 176.02315318020516
v -173.65710159056187 954.3630061859033 176.02315318020516
f 24 28 22
f 17 24 22
f 18 28 20
f 26 21 20
f 19 21 25
f 19 25 24
f 19 24 17
f 16 22 28
f 16 28 18
f 29 26 20
f 29 20 28
f 27 26 29
f 27 29 28
f 27 28 24
f 27 24 25
f 27 25 21
f 27 21 26
f 23 19 17
f 23 17 22
f 23 22 16
f 23 16 18
f 23 18 20
f 23 20 21
f 23 21 19
o hull_2
v -250.00003051757815 1000.0000000000001 0.000021060044673504308
v 242.75779418296815 967.292429106498 76.10168392141448
v 250.00003051757815 1000.0000000000001 -0.000021060044673504308
v 248.38077495496313 989.7842335970377 76.10168392141448
v -242.75774538080472 967.2924313073323 76.10168392141448
v -245.46509797132563 980.0601992986088 -36.640850854709896
v 242.75776435976317 969.2310180425861 -36.640850854709896
v -250.00000682337568 996.2613391818417 76.10168392141448
v -242.75778785664832 969.2310159410758 -36.640850854709896
v -250.00004192568983 998.1999368722026 -36.640850854709896
v 250.00001910947998 998.199939008591 -36.640850854709896
v -63.08960442484069 998.1999377128749 -36.640850854709896
v -138.2058543631394 996.2613387191836 76.10168392141448
v 250.00005421179463 996.2613369731389 76.10168392141448
f 32 43 40
f 33 40 43
f 36 40 33
f 36 33 31
f 36 31 38
f 34 38 31
f 42 37 34
f 42 34 31
f 42 31 33
f 42 33 43
f 42 43 32
f 35 38 34
f 35 34 37
f 35 37 39
f 30 39 37
f 30 37 42
f 30 42 32
f 30 32 40
f 41 30 40
f 41 40 36
f 41 36 38
f 41 38 35
f 41 35 39
f 41 39 30
o hull_3
v -63.08960442484069 998.1999377128749 -36.640850854709896
v -245.46509797132563 980.0601992986088 -36.640850854709896
v 242.75776435976317 969.2310180425861 -36.640850854709896
v 250.00001910947998 998.199939008591 -36.640850854709896
v -250.00006103515628 995.1846923828125 -98.01713562011719
v 250.00000000000003 995.1846923828125 -98.01718139648438
v 246.44791123767138 974.18697867974 -142.85643368666723
v -250.00004192568983 998.1999368722026 -36.640850854709896
v 242.75773620605472 959.2828216284837 -142.85643368666723
v 2.8236032953571386 959.2828182728354 -142.85643368666723
v -242.7578126774874 959.2828159830829 -142.85643368666723
v -250.00007513159932 988.5334267090466 -142.85643368666723
v 249.99998590356915 988.5334324538115 -142.85643368666723
v -242.75778785664832 969.2310159410758 -36.640850854709896
f 55 54 51
f 57 54 46
f 52 47 46
f 48 55 51
f 45 51 54
f 45 54 57
f 53 52 46
f 53 46 54
f 50 52 53
f 50 53 54
f 50 54 55
f 50 55 56
f 50 56 47
f 50 47 52
f 44 51 45
f 44 45 57
f 44 57 46
f 44 46 47
f 49 48 51
f 49 51 44
f 49 44 47
f 49 47 56
f 49 56 55
f 49 55 48
o hull_4
v 246.3753742906769 790.2141843003394 586.8862027002392
v 242.75798034655995 686.6228707694892 686.6224035733768
v 242.75794402190874 772.2210221146598 586.8862027002392
v -242.7575836181641 686.6228707694892 686.6224035733768
v -242.75760103974267 772.2210221146598 586.8862027002392
v -249.99986580525163 808.2441563639876 586.8862027002392
v 250.00019522990468 808.2441563639876 586.8862027002392
v -249.9998125960247 686.6228707694892 725.6723537271307
v 250.000244140625 707.1067504882814 707.1068115234376
v -249.99984741210938 773.0104370117188 634.3933715820313
v 250.00021362304688 773.0104370117188 634.3933715820313
v -249.99981689453128 707.1067504882814 707.1068115234376
v 250.00024843913158 686.6228707694892 725.6723537271307
f 67 63 65
f 62 65 63
f 58 70 60
f 58 60 62
f 58 62 63
f 58 63 64
f 58 64 70
f 68 64 63
f 68 63 67
f 61 65 62
f 66 70 64
f 66 64 68
f 59 61 62
f 59 62 60
f 59 60 70
f 59 70 65
f 59 65 61
f 69 66 68
f 69 68 67
f 69 67 65
f 69 65 70
f 69 70 66
o hull_5
v 250.00018310546878 831.4696044921876 555.5703125000001
v -249.9105242623681 881.0014061359765 472.2369417266113
v 242.757909465135 847.6843046225342 472.2369417266113
v 156.65000418682843 847.6843046225342 472.2369417266113
v -242.75762939453125 847.6843347174433 472.2369417266113
v -249.99989303618662 881.4176726845221 472.2369417266113
v 250.0001679989806 881.4176364666233 472.2369417266113
v 250.00019522990468 808.2441563639876 586.8862027002392
v 246.3753742906769 790.2141843003394 586.8862027002392
v -249.99986580525163 808.2441563639876 586.8862027002392
v 242.75794402190874 772.2210221146598 586.8862027002392
v -249.99987792968753 831.4696044921876 555.5703125000001
v -242.75760103974267 772.2210221146598 586.8862027002392
f 71 78 77
f 79 81 77
f 79 77 78
f 76 71 77
f 73 77 81
f 83 81 79
f 83 79 78
f 83 78 80
f 83 80 76
f 82 76 80
f 82 80 78
f 82 78 71
f 82 71 76
f 74 83 75
f 74 73 81
f 74 81 83
f 72 83 76
f 72 76 77
f 72 77 73
f 72 73 74
f 72 74 75
f 72 75 83
o hull_6
v 250.00013732910162 923.8795166015625 382.6834411621094
v -249.9999237060547 923.8795166015625 382.6835021972656
v 250.0001678466797 881.9212036132813 471.3967895507813
v -249.9998931884766 881.9212036132813 471.3968505859375
v 250.0001679989806 881.4176364666233 472.2369417266113
v 242.75788938523596 895.5369033078401 374.9356326464453
v -249.99989303618662 881.4176726845221 472.2369417266113
v -242.75767339705897 895.5369321753542 374.9356326464453
v -249.99992626503123 926.6517531224342 374.9356326464453
v 250.00013477014525 926.651731283671 374.9356326464453
v -242.75762939453125 847.6843347174433 472.2369417266113
v 156.65000418682843 847.6843046225342 472.2369417266113
v 242.757909465135 847.6843046225342 472.2369417266113
v -249.9105242623681 881.0014061359765 472.2369417266113
f 85 92 90
f 97 90 92
f 97 92 94
f 93 92 85
f 96 89 93
f 96 93 88
f 91 94 92
f 91 92 93
f 91 93 89
f 87 85 90
f 87 90 88
f 84 93 85
f 95 91 89
f 95 89 96
f 95 96 88
f 95 88 90
f 95 90 97
f 95 97 94
f 95 94 91
f 86 84 85
f 86 85 87
f 86 87 88
f 86 88 93
f 86 93 84
o hull_7
v 250.00013477014525 926.651731283671 374.9356326464453
v -246.63169592650777 929.1169640608247 328.1019340188455
v 242.75784316280357 929.1169640608247 282.1601007487252
v -249.99992626503123 926.6517531224342 374.9356326464453
v -242.75769038127902 929.1169640608247 282.1601617838815
v -249.99992854060076 929.1169640608247 368.04584073219013
v 250.00013249455554 929.1169640608247 368.0457796970339
v -242.75767339705897 895.5369321753542 374.9356326464453
v 242.75788938523596 895.5369033078401 374.9356326464453
f 98 106 104
f 98 104 103
f 98 103 101
f 105 106 98
f 105 98 101
f 105 101 103
f 105 102 106
f 100 106 102
f 100 104 106
f 99 105 103
f 99 103 104
f 99 104 100
f 99 100 102
f 99 102 105
o hull_8
v 250.00030517578128 290.2846984863282 956.9404907226564
v 250.0003204345703 181.12962478229412 982.8562689660499
v 242.75804138183594 282.1604732596915 929.1169528444699
v 250.0003204345703 195.09031677246094 980.785400390625
v -242.75749216237335 282.1604732596915 929.1169528444699
v -249.99975585937503 368.0461522077138 929.1169528444699
v 250.00030517578128 368.0461522077138 929.1169528444699
v -249.99974060058597 195.09031677246094 980.785400390625
v -249.99975585937503 290.2846984863282 956.9404907226564
v -249.99974060058597 181.12962478229412 982.8562689660499
v -242.75749072036294 181.12962478229412 953.6056517441734
v 242.7580427269027 181.12962478229412 953.6056517441734
f 118 113 108
f 109 113 118
f 107 113 112
f 107 112 115
f 111 112 113
f 111 113 109
f 110 108 113
f 110 113 107
f 116 115 112
f 117 116 112
f 117 112 111
f 117 111 109
f 117 109 118
f 117 118 108
f 117 108 116
f 114 116 108
f 114 108 110
f 114 110 107
f 114 107 115
f 114 115 116
o hull_9
v 250.0003204345703 73.06055504559534 996.4108617066287
v -249.99974060058597 73.06055504559534 996.4108617066287
v 242.7580427269027 181.12962478229412 953.6056517441734
v -242.75747680664063 73.06055504559534 967.4419531002558
v -242.75749072036294 181.12962478229412 953.6056517441734
v -249.99974060058597 181.12962478229412 982.8562689660499
v 250.0003204345703 181.12962478229412 982.8562689660499
v 250.0003204345703 98.01714324951172 995.1848144531251
v -249.99974060058597 98.01714324951172 995.1848144531251
v 242.75805664062503 73.06055504559534 967.4419531002558
v -248.15575505758162 73.06055504559534 989.0349506151402
f 124 123 120
f 121 128 122
f 121 122 123
f 121 123 124
f 121 124 125
f 121 125 119
f 121 119 128
f 126 119 125
f 129 122 128
f 129 128 119
f 129 119 120
f 129 120 123
f 129 123 122
f 127 126 125
f 127 125 124
f 127 124 120
f 127 120 119
f 127 119 126
o hull_10
v 250.0003204345703 -37.759631850809676 998.1450971548186
v -248.15575505758162 73.06055504559534 989.0349506151402
v 242.75805664062503 73.06055504559534 967.4419531002558
v -249.99974060058597 -37.759631850809676 998.1450971548186
v -242.75747680664063 73.06055504559534 967.4419531002558
v -249.99974060058597 73.06055504559534 996.4108617066287
v 250.0003204345703 73.06055504559534 996.4108617066287
v -242.75747680664063 -37.759631850809676 969.1761767121138
v 245.54802995995234 -37.759631850809676 980.3360103017394
v 250.0003204345703 0 1000.0001220703126
v 242.75805664062503 -37.759631850809676 969.1761767121138
v -249.99974060058597 0 1000.0001220703126
f 132 140 137
f 132 137 134
f 138 130 133
f 138 133 137
f 138 137 140
f 138 140 132
f 138 132 136
f 138 136 130
f 139 130 136
f 131 137 133
f 131 133 135
f 131 135 136
f 131 136 132
f 131 132 134
f 131 134 137
f 141 139 136
f 141 136 135
f 141 135 133
f 141 133 130
f 141 130 139
o hull_11
v 245.54802995995234 -37.759631850809676 980.3360103017394
v -249.99974060058597 -142.8564162481398 988.533550929572
v 242.75805664062503 -37.759631850809676 969.1761767121138
v -242.7574845247748 -142.8564162481398 959.2829417587037
v -242.75747680664063 -37.759631850809676 969.1761767121138
v -249.99974060058597 -37.759631850809676 998.1450971548186
v 250.0003204345703 -37.759631850809676 998.1450971548186
v 242.75804892249084 -142.8564162481398 959.2829417587037
v 246.2140954748417 -142.8564162481398 973.2414610931612
v -249.99974060058597 -98.01714324951172 995.1848144531251
v 250.0003204345703 -98.01714324951172 995.1848144531251
v -246.44765797813156 -142.8564162481398 974.1870928048421
v 250.0003204345703 -142.8564162481398 988.533550929572
f 152 154 148
f 150 149 148
f 150 148 154
f 145 146 144
f 145 144 149
f 145 147 146
f 151 147 143
f 151 143 154
f 151 154 152
f 151 152 148
f 151 148 147
f 142 144 146
f 142 146 147
f 142 147 148
f 142 148 149
f 142 149 144
f 153 145 149
f 153 149 150
f 153 150 154
f 153 154 143
f 153 143 147
f 153 147 145
o hull_12
v -249.99980163574222 634.3933105468751 773.0105590820314
v 250.0002593994141 634.3933105468751 773.0105590820314
v 250.00026764561667 591.7955059959685 804.6032455311849
v 242.75798034655995 686.6228707694892 686.6224035733768
v -249.9997933895396 591.7955059959685 804.6032455311849
v -242.7575836181641 686.6228707694892 686.6224035733768
v -249.9998125960247 686.6228707694892 725.6723537271307
v 250.00024843913158 686.6228707694892 725.6723537271307
v -242.7575378417969 591.7955059959685 768.58006999183
v 245.6599358245264 591.7955059959685 783.0143422091672
v -246.74955802586877 591.7955059959685 788.4364807227696
v 242.75799560546878 591.7955059959685 768.58006999183
f 162 157 158
f 160 159 161
f 160 161 162
f 160 162 158
f 166 163 160
f 166 160 158
f 155 161 159
f 165 160 163
f 165 159 160
f 164 166 158
f 164 158 157
f 164 157 159
f 164 159 165
f 164 165 163
f 164 163 166
f 156 155 159
f 156 159 157
f 156 157 162
f 156 162 161
f 156 161 155
o hull_13
v 245.6599358245264 591.7955059959685 783.0143422091672
v -246.74955802586877 591.7955059959685 788.4364807227696
v 242.75799560546878 591.7955059959685 768.58006999183
v -249.99978637695313 555.5702514648438 831.4697265625
v -242.7575378417969 591.7955059959685 768.58006999183
v -249.9997933895396 591.7955059959685 804.6032455311849
v 250.00026764561667 591.7955059959685 804.6032455311849
v 250.0002845063261 501.24412496782224 864.0315209784258
v 250.00027465820315 555.5702514648438 831.4697265625
v -249.99977652883015 501.24412496782224 864.0315209784258
v -242.75753070444992 501.24412496782224 830.2981864298936
v 242.7580170175097 501.24412496782224 830.2981864298936
f 177 178 174
f 177 174 176
f 177 176 171
f 169 178 177
f 169 177 171
f 169 174 178
f 168 171 176
f 168 176 172
f 175 174 173
f 167 169 171
f 167 171 168
f 167 168 172
f 167 172 173
f 167 173 174
f 167 174 169
f 170 175 173
f 170 173 172
f 170 172 176
f 170 176 174
f 170 174 175
o hull_14
v 246.0186810419209 423.9482474407788 886.7660888538113
v -247.6905845704712 439.5758270596606 886.7660888538113
v 242.75804138183594 393.4801895153065 886.7660888538113
v 250.00030517578128 382.6834411621094 923.8796386718751
v -242.75752258300784 393.4801895153065 886.7660888538113
v -249.99976935629107 461.15337734029015 886.7660888538113
v 250.0002916788652 461.15337734029015 886.7660888538113
v -249.99975585937503 382.6834411621094 923.8796386718751
v 250.00030517578128 368.0461522077138 929.1169528444699
v -249.99975585937503 368.0461522077138 929.1169528444699
v -242.75749216237335 282.1604732596915 929.1169528444699
v 242.75804138183594 282.1604732596915 929.1169528444699
f 187 190 185
f 182 187 185
f 189 183 181
f 189 181 190
f 189 190 187
f 189 187 188
f 189 188 184
f 186 184 188
f 186 188 187
f 186 187 182
f 186 182 185
f 186 185 184
f 179 185 190
f 179 190 181
f 180 189 184
f 180 184 185
f 180 185 179
f 180 179 181
f 180 181 183
f 180 183 189
o hull_15
v -249.99977111816406 471.3967590332032 881.9213256835939
v 250.0002899169922 471.3967590332032 881.9213256835939
v 242.7580170175097 501.24412496782224 830.2981864298936
v 250.0002916788652 461.15337734029015 886.7660888538113
v -242.75753070444992 501.24412496782224 830.2981864298936
v -249.99977652883015 501.24412496782224 864.0315209784258
v 250.0002845063261 501.24412496782224 864.0315209784258
v -249.99976935629107 461.15337734029015 886.7660888538113
v -242.75752258300784 393.4801895153065 886.7660888538113
v 246.0186810419209 423.9482474407788 886.7660888538113
v -247.6905845704712 439.5758270596606 886.7660888538113
v 242.75804138183594 393.4801895153065 886.7660888538113
f 192 194 197
f 200 202 197
f 200 197 194
f 193 195 196
f 193 196 197
f 193 197 202
f 199 195 193
f 199 193 202
f 199 196 195
f 191 196 198
f 191 198 194
f 191 194 192
f 191 192 197
f 191 197 196
f 201 199 202
f 201 202 200
f 201 200 194
f 201 194 198
f 201 198 196
f 201 196 199
o hull_16
v 246.44791123767138 974.18697867974 -142.85643368666723
v 249.99998590356915 988.5334324538115 -142.85643368666723
v 242.75773620605472 959.2828216284837 -142.85643368666723
v 2.8236032953571386 959.2828182728354 -142.85643368666723
v -242.7578126774874 959.2828159830829 -142.85643368666723
v -250.00007513159932 988.5334267090466 -142.85643368666723
v -250.00009155273438 980.7852783203126 -195.09033203125
v 249.99996948242188 980.7852783203126 -195.09036254882815
v 99.61106573620806 964.1123869178236 -261.6523938619496
v 249.99995881313853 964.1123892170413 -261.6523938619496
v 242.7577004445515 934.2844360460664 -261.6523938619496
v -250.00010222202607 964.1123762277738 -261.6523938619496
v -242.75783967929914 934.2844224299573 -261.6523938619496
f 214 215 208
f 207 208 215
f 213 205 215
f 213 212 204
f 209 214 208
f 209 208 204
f 206 207 215
f 206 215 205
f 203 213 204
f 203 204 208
f 203 208 207
f 203 207 206
f 203 206 205
f 203 205 213
f 210 209 204
f 210 204 212
f 211 209 210
f 211 210 212
f 211 212 213
f 211 213 215
f 211 215 214
f 211 214 209
o hull_17
v 249.99992801114732 928.5433870183867 -369.648878593028
v -250.00013302402917 928.5433651796234 -369.648878593028
v 242.7577004445515 934.2844360460664 -261.6523938619496
v -242.75788779975292 897.8129524416797 -369.648878593028
v -242.75783967929914 934.2844224299573 -261.6523938619496
v -250.00010222202607 964.1123762277738 -261.6523938619496
v 249.99995881313853 964.1123892170413 -261.6523938619496
v 99.61106573620806 964.1123869178236 -261.6523938619496
v -250.00010681152347 956.9403686523438 -290.2846984863282
v 249.99995422363284 956.9403686523438 -290.2847595214844
v 242.93123859086123 898.5494384909393 -369.648878593028
v 242.7576755023063 897.8129742804261 -369.648878593028
f 217 219 221
f 220 221 219
f 220 219 218
f 227 218 219
f 227 222 218
f 224 217 221
f 224 216 217
f 226 227 219
f 226 219 217
f 226 217 216
f 226 216 222
f 226 222 227
f 223 221 220
f 223 220 218
f 223 218 222
f 225 224 221
f 225 221 223
f 225 223 222
f 225 222 216
f 225 216 224
o hull_18
v 242.93123859086123 898.5494384909393 -369.648878593028
v 249.99989788612666 888.3799557302283 -457.74097441029556
v 242.7576755023063 897.8129742804261 -369.648878593028
v -250.0001631490506 888.3799268627329 -457.74097441029556
v -242.75788779975292 897.8129524416797 -369.648878593028
v -250.00013302402917 928.5433651796234 -369.648878593028
v 249.99992801114732 928.5433870183867 -369.648878593028
v 242.75762939454344 856.3728746024042 -457.74097441029556
v -242.75790405274861 856.3728409147222 -457.74097441029556
v -249.00918656801326 884.0003121094165 -457.74097441029556
v -250.00013732910162 923.8795166015625 -382.6834411621094
v 249.9999237060547 923.8795166015625 -382.6835021972656
f 229 234 235
f 236 232 233
f 230 232 236
f 230 236 235
f 239 234 229
f 239 229 231
f 237 236 233
f 237 233 231
f 237 231 229
f 237 229 235
f 237 235 236
f 228 230 235
f 228 235 234
f 228 234 233
f 228 233 232
f 228 232 230
f 238 239 231
f 238 231 233
f 238 233 234
f 238 234 239
o hull_19
v -249.00918656801326 884.0003121094165 -457.74097441029556
v -242.75790405274861 856.3728409147222 -457.74097441029556
v 242.75762939454344 856.3728746024042 -457.74097441029556
v 249.9998650367375 806.7719984131813 -588.8711778228025
v -250.00019599841875 806.7719984131813 -588.8711778228025
v -250.0001631490506 888.3799268627329 -457.74097441029556
v 249.99989788612666 888.3799557302283 -457.74097441029556
v -242.75793473450122 806.7719984131813 -540.2996006999903
v 242.7576289019652 806.7719984131813 -540.2996006999903
v -242.88663344559365 806.7719984131813 -541.1627415161513
v 249.99987792968753 831.4696044921876 -555.5703125000001
v -250.00018310546878 831.4696044921876 -555.5703125000001
v -250.0001678466797 881.9212036132813 -471.3967895507813
v 249.9998931884766 881.9212036132813 -471.3968505859375
f 242 243 246
f 250 246 243
f 250 243 244
f 250 244 251
f 248 242 241
f 248 241 247
f 248 243 242
f 240 245 244
f 240 244 241
f 240 241 242
f 240 242 246
f 240 246 245
f 252 251 244
f 252 244 245
f 249 247 241
f 249 241 244
f 249 244 243
f 249 243 248
f 249 248 247
f 253 252 245
f 253 245 246
f 253 246 250
f 253 250 251
f 253 251 252
o hull_20
v 249.99985450476183 786.597051116536 -616.0739439804225
v -242.88663344559365 806.7719984131813 -541.1627415161513
v 242.7576289019652 806.7719984131813 -540.2996006999903
v -250.00020653039442 786.597051116536 -616.0739439804225
v -242.75793473450122 806.7719984131813 -540.2996006999903
v -250.00019599841875 806.7719984131813 -588.8711778228025
v 249.9998650367375 806.7719984131813 -588.8711778228025
v -242.7579498542817 750.5643244939315 -616.0739439804225
v 242.7575836181641 750.5643244939315 -616.0739439804225
f 257 261 259
f 257 259 260
f 257 260 254
f 262 261 257
f 262 257 254
f 262 254 260
f 262 260 256
f 258 261 262
f 258 262 256
f 255 258 256
f 255 256 260
f 255 260 259
f 255 259 261
f 255 261 258
o hull_21
v 249.99985450476183 786.597051116536 -616.0739439804225
v 249.99984741210938 773.0104370117188 -634.3933715820313
v -250.00021362304688 773.0104370117188 -634.3933715820313
v 249.99982549169493 725.6726005763222 -686.6225731362905
v -250.00023554346132 725.6726005763222 -686.6225731362905
v 242.7575836181641 750.5643244939315 -616.0739439804225
v -250.00020653039442 786.597051116536 -616.0739439804225
v -242.7579498542817 750.5643244939315 -616.0739439804225
v -248.37162354392143 716.8912043419442 -686.6225731362905
v 242.7575836181641 686.6227170864852 -686.6225731362905
v -242.75798034663325 686.6227170864852 -686.6225731362905
f 270 268 263
f 270 263 269
f 270 269 273
f 272 268 270
f 272 270 273
f 272 266 263
f 272 263 268
f 271 267 266
f 271 266 272
f 271 272 273
f 271 273 269
f 271 269 267
f 264 263 266
f 265 264 266
f 265 266 267
f 265 267 269
f 265 269 263
f 265 263 264
o hull_22
v -248.37162354392143 716.8912043419442 -686.6225731362905
v 242.7575836181641 686.6227170864852 -686.6225731362905
v 249.9998067863038 658.9375288898551 -750.7649333627389
v -242.75798034663325 686.6227170864852 -686.6225731362905
v -250.00023554346132 725.6726005763222 -686.6225731362905
v 249.99982549169493 725.6726005763222 -686.6225731362905
v -250.00025424885249 658.9375288898551 -750.7649333627389
v 249.99981689453128 707.1067504882814 -707.1068115234376
v -250.000244140625 707.1067504882814 -707.1068115234376
v -242.75799560546878 615.816412964876 -750.7649333627389
v 242.7575378417969 615.816412964876 -750.7649333627389
f 276 279 284
f 283 278 280
f 283 280 276
f 283 276 284
f 275 277 283
f 275 283 284
f 275 284 279
f 282 280 278
f 274 283 277
f 274 277 275
f 274 275 279
f 274 279 278
f 274 278 283
f 281 282 278
f 281 278 279
f 281 279 276
f 281 276 280
f 281 280 282
o hull_23
v 249.99979454893483 597.7846495414465 -800.161393747365
v -250.0002593994141 634.3933105468751 -773.0105590820314
v 249.99980163574222 634.3933105468751 -773.0105590820314
v -250.00026648622145 597.7846495414465 -800.161393747365
v 242.7575378417969 615.816412964876 -750.7649333627389
v -242.75799560546878 597.7846495414465 -764.1382139581658
v -242.75799560546878 615.816412964876 -750.7649333627389
v 247.20652749756457 597.7846495414465 -786.2676025557247
v -250.00025424885249 658.9375288898551 -750.7649333627389
v 249.9998067863038 658.9375288898551 -750.7649333627389
v 242.7575378417969 597.7846495414465 -764.1382139581658
v -244.94234494359642 597.7846495414465 -775.0031838004921
f 286 288 293
f 285 288 286
f 285 286 287
f 294 285 287
f 294 287 286
f 294 286 293
f 292 294 295
f 292 285 294
f 296 290 293
f 296 293 288
f 296 288 285
f 296 285 292
f 296 292 295
f 296 295 290
f 289 295 294
f 291 290 295
f 291 295 289
f 291 289 294
f 291 294 293
f 291 293 290
o hull_24
v 247.20652749756457 597.7846495414465 -786.2676025557247
v -250.00027465820315 555.5702514648438 -831.4697265625
v 242.7575378417969 539.4761749457823 -807.3827693323744
v -244.94234494359642 597.7846495414465 -775.0031838004921
v 242.7575378417969 597.7846495414465 -764.1382139581658
v 249.99978345945368 539.4761749457823 -841.1161351087928
v -242.75799560546878 539.4761749457823 -807.3827693323744
v -250.00027757570257 539.4761749457823 -841.1161351087928
v -242.75799560546878 597.7846495414465 -764.1382139581658
v -250.00026648622145 597.7846495414465 -800.161393747365
v 249.99979454893483 597.7846495414465 -800.161393747365
v 249.99978637695313 555.5702514648438 -831.4697265625
f 308 307 302
f 297 301 302
f 297 302 307
f 299 303 304
f 299 304 302
f 299 302 301
f 305 303 299
f 305 299 301
f 305 304 303
f 298 304 306
f 298 306 307
f 298 307 308
f 298 308 302
f 298 302 304
f 300 305 301
f 300 301 297
f 300 297 307
f 300 307 306
f 300 306 304
f 300 304 305
o hull_25
v 249.99976878769272 457.84759433183467 -888.329609207561
v 242.7575378417969 539.4761749457823 -807.3827693323744
v -250.00029224746356 457.84759433183467 -888.329609207561
v -242.75799560546878 539.4761749457823 -807.3827693323744
v -250.00027757570257 539.4761749457823 -841.1161351087928
v 249.99978345945368 539.4761749457823 -841.1161351087928
v -242.75804132208415 457.84759433183467 -856.3090392373654
v -250.0002899169922 471.3967590332032 -881.9213256835939
v 249.99977111816406 471.3967590332032 -881.9213256835939
v 242.7575226029251 457.84759433183467 -856.3090392373654
f 313 311 312
f 316 311 313
f 310 318 309
f 310 309 314
f 310 314 313
f 310 313 312
f 315 318 310
f 315 310 312
f 315 312 311
f 315 311 309
f 315 309 318
f 317 309 311
f 317 311 316
f 317 316 313
f 317 313 314
f 317 314 309
o hull_26
v 249.99976878769272 457.84759433183467 -888.329609207561
v -250.00029224746356 457.84759433183467 -888.329609207561
v -242.75804132208415 457.84759433183467 -856.3090392373654
v 249.99976559243865 439.27065553809996 -897.1158549593462
v -250.00029544271763 439.27065553809996 -897.1158549593462
v 242.7575226029251 457.84759433183467 -856.3090392373654
v -242.75804138183594 371.5974750634194 -897.1158549593462
v -247.129026958914 412.44083046051014 -897.1158549593462
v 242.75752258299812 371.5974750634193 -897.1158549593462
f 320 319 322
f 320 322 323
f 320 323 321
f 325 327 321
f 324 321 327
f 324 327 322
f 324 322 319
f 324 319 320
f 324 320 321
f 326 325 321
f 326 321 323
f 326 323 322
f 326 322 327
f 326 327 325
o hull_27
v -247.129026958914 412.44083046051014 -897.1158549593462
v 242.75752258299812 371.5974750634193 -897.1158549593462
v -242.75804138183594 371.5974750634194 -897.1158549593462
v -250.00029544271763 439.27065553809996 -897.1158549593462
v 249.99976559243865 439.27065553809996 -897.1158549593462
v 249.9997547307136 283.2433645811669 -958.704249968609
v -250.00030517578128 290.2846984863282 -956.9404907226564
v -250.00030630444274 283.2433645811669 -958.704249968609
v 249.99975585937503 290.2846984863282 -956.9404907226564
v -250.00030517578128 382.6834411621094 -923.8796386718751
v 249.99975585937503 382.6834411621094 -923.8796386718751
v -242.75804138183594 283.2433645811669 -928.7294878078676
v 242.75749253070222 283.2433645811669 -928.7294878078676
f 340 333 332
f 329 340 332
f 336 338 332
f 336 332 333
f 335 334 336
f 335 336 333
f 337 334 335
f 337 335 331
f 337 331 332
f 337 332 338
f 337 338 336
f 337 336 334
f 339 335 333
f 339 333 340
f 339 340 329
f 339 331 335
f 330 339 329
f 328 330 329
f 328 329 332
f 328 332 331
f 328 331 339
f 328 339 330
o hull_28
v 249.9997547307136 283.2433645811669 -958.704249968609
v -250.00030630444274 283.2433645811669 -958.704249968609
v -242.75804138183594 283.2433645811669 -928.7294878078676
v 249.9997419304695 203.38700664208744 -978.7071913942261
v -250.00031910468678 203.38700664208744 -978.7071913942261
v 242.75749253070222 283.2433645811669 -928.7294878078676
v -242.75804138183594 203.38700664208744 -948.8792572924442
v 243.75918675661438 203.38700664208744 -953.0048334653223
v -249.30795602099042 203.38700664208744 -975.8556280603535
v 242.7574920654297 203.38700664208744 -948.8792572924442
f 341 346 344
f 345 342 341
f 345 341 344
f 343 347 350
f 343 350 346
f 343 346 341
f 343 341 342
f 343 342 345
f 348 344 346
f 348 346 350
f 349 343 345
f 349 345 344
f 349 344 348
f 349 348 350
f 349 350 347
f 349 347 343
o hull_29
v 243.75918675661438 203.38700664208744 -953.0048334653223
v -249.30795602099042 203.38700664208744 -975.8556280603535
v 242.7574920654297 203.38700664208744 -948.8792572924442
v 249.99974060058597 195.09031677246094 -980.785400390625
v -242.75804138183594 203.38700664208744 -948.8792572924442
v -250.00031910468678 203.38700664208744 -978.7071913942261
v 249.9997419304695 203.38700664208744 -978.7071913942261
v -250.0003204345703 195.09031677246094 -980.785400390625
v 249.99974060058597 98.36896499186648 -995.1326267398723
v 242.75747732323788 98.36896499186648 -965.8820269272168
v -250.0003204345703 98.36896499186648 -995.1326267398723
v -242.75805612402777 98.36896499186648 -965.8820269272168
f 354 357 359
f 351 353 359
f 351 359 357
f 360 362 361
f 360 361 359
f 360 359 353
f 355 362 360
f 355 360 353
f 355 361 362
f 358 361 356
f 358 356 357
f 358 357 354
f 358 354 359
f 358 359 361
f 352 355 353
f 352 353 351
f 352 351 357
f 352 357 356
f 352 356 361
f 352 361 355
o hull_30
v 249.99974060058597 8.436519366908787 -999.5856595117925
v -250.0003204345703 8.436519366908787 -999.5856595117925
v 242.75747732323788 98.36896499186648 -965.8820269272168
v -242.75805664062503 8.436519366908787 -970.6167292341066
v -242.75805612402777 98.36896499186648 -965.8820269272168
v -250.0003204345703 98.36896499186648 -995.1326267398723
v 249.99974060058597 98.36896499186648 -995.1326267398723
v 243.38083203731907 8.436519366908787 -973.1101368209762
v -250.0003204345703 98.01714324951172 -995.1848144531251
v 242.75747680664063 8.436519366908787 -970.6167292341066
v 249.99974060058597 98.01714324951172 -995.1848144531251
f 369 365 363
f 373 369 363
f 367 366 372
f 367 372 365
f 367 365 369
f 367 369 368
f 367 368 364
f 367 364 366
f 371 364 368
f 371 368 369
f 371 369 373
f 371 373 363
f 371 363 364
f 370 372 366
f 370 366 364
f 370 364 363
f 370 363 365
f 370 365 372
o hull_31
v 243.38083203731907 8.436519366908787 -973.1101368209762
v 249.99974060058597 -85.22101220431178 -995.8134525183625
v 242.75747680664063 8.436519366908787 -970.6167292341066
v -250.0003204345703 -85.22101220431178 -995.8134525183625
v -242.75805664062503 8.436519366908787 -970.6167292341066
v -250.0003204345703 8.436519366908787 -999.5856595117925
v 249.99974060058597 8.436519366908787 -999.5856595117925
v -242.75805664062503 -85.22101220431178 -966.8445479902157
v -249.05484341366343 -85.22101220431178 -992.0315603711829
v 242.75747680664063 -85.22101220431178 -966.8445479902157
v 249.99974060058597 0 -1000.0001220703126
v -250.0003204345703 0 -1000.0001220703126
f 383 376 378
f 383 378 381
f 374 380 379
f 374 379 378
f 374 378 376
f 374 376 383
f 374 383 375
f 374 375 380
f 384 380 375
f 382 378 379
f 382 379 377
f 382 377 375
f 382 375 383
f 382 383 381
f 382 381 378
f 385 384 375
f 385 375 377
f 385 377 379
f 385 379 380
f 385 380 384
o hull_32
v -250.0003204345703 -142.8564162481398 -988.533550929572
v -249.05484341366343 -85.22101220431178 -992.0315603711829
v 242.75747680664063 -85.22101220431178 -966.8445479902157
v 249.99974060058597 -142.8564162481398 -988.533550929572
v -242.75805664062503 -85.22101220431178 -966.8445479902157
v -250.0003204345703 -85.22101220431178 -995.8134525183625
v 249.99974060058597 -85.22101220431178 -995.8134525183625
v 242.7574845247748 -142.8564162481398 -959.2829417587037
v 249.99974060058597 -98.01714324951172 -995.1848144531251
v -250.0003204345703 -98.01714324951172 -995.1848144531251
v -242.75804892249084 -142.8564162481398 -959.2829417587037
v 246.44765797813156 -142.8564162481398 -974.1870928048421
v -246.2140954748417 -142.8564162481398 -973.2414610931612
f 388 390 396
f 388 396 393
f 388 393 392
f 397 389 392
f 397 392 393
f 395 386 391
f 387 396 390
f 387 390 388
f 387 388 392
f 387 392 391
f 387 391 396
f 398 396 391
f 398 391 386
f 398 386 389
f 398 389 397
f 398 397 393
f 398 393 396
f 394 395 391
f 394 391 392
f 394 392 389
f 394 389 386
f 394 386 395
o hull_33
v 250.0003204345703 -195.09031677246094 980.785400390625
v -249.99974060058597 -195.09031677246094 980.785400390625
v 246.2140954748417 -142.8564162481398 973.2414610931612
v -246.44765797813156 -142.8564162481398 974.1870928048421
v 242.75804892249084 -142.8564162481398 959.2829417587037
v 250.0003056032279 -287.6180047143729 957.6084615730322
v -242.7574845247748 -142.8564162481398 959.2829417587037
v -249.9997554319284 -287.6180047143729 957.6084615730322
v -242.75749401866898 -287.6180047143729 927.1642152216718
v 242.75804138183594 -287.6180047143729 927.1642152216718
v -249.99974060058597 -142.8564162481398 988.533550929572
v 250.0003204345703 -142.8564162481398 988.533550929572
f 406 409 407
f 400 409 406
f 408 410 404
f 408 404 406
f 408 406 407
f 405 403 408
f 405 408 407
f 399 410 409
f 399 409 400
f 399 400 406
f 399 406 404
f 399 404 410
f 401 408 403
f 401 410 408
f 402 405 407
f 402 407 409
f 402 409 410
f 402 410 401
f 402 401 403
f 402 403 405
o hull_34
v 250.00030517578128 -290.2846984863282 956.9404907226564
v -249.99975585937503 -290.2846984863282 956.9404907226564
v 250.00030517578128 -377.2321833286685 925.8301330563544
v -249.99975585937503 -377.2321833286685 925.8301330563544
v 250.0003056032279 -287.6180047143729 957.6084615730322
v -242.75752258300784 -377.2321833286685 894.4508355333917
v 242.75804138183594 -287.6180047143729 927.1642152216718
v 242.75804138183594 -377.2321833286685 894.4508355333917
v -249.9997554319284 -287.6180047143729 957.6084615730322
v -242.75749401866898 -287.6180047143729 927.1642152216718
f 414 419 416
f 412 419 414
f 418 417 415
f 418 415 413
f 418 413 414
f 418 414 416
f 420 417 418
f 420 418 416
f 420 416 419
f 420 419 415
f 420 415 417
f 411 415 419
f 411 419 412
f 411 412 414
f 411 414 413
f 411 413 415
o hull_35
v -249.99975585937503 -382.6834411621094 923.8796386718751
v 250.00030517578128 -382.6834411621094 923.8796386718751
v 250.0002923970208 -456.97808103528865 888.7408587461812
v -249.99976863813546 -456.97808103528865 888.7408587461812
v 250.00030517578128 -377.2321833286685 925.8301330563544
v -249.99975585937503 -377.2321833286685 925.8301330563544
v -242.75752258300784 -456.97808103528865 856.7337756325235
v 242.75804138183594 -456.97808103528865 856.7337756325235
v -242.75752258300784 -377.2321833286685 894.4508355333917
v 242.75804138183594 -377.2321833286685 894.4508355333917
f 423 428 425
f 422 423 425
f 430 429 426
f 430 426 425
f 430 425 428
f 427 429 430
f 427 430 428
f 427 428 423
f 427 423 424
f 427 424 426
f 427 426 429
f 421 426 424
f 421 424 423
f 421 423 422
f 421 422 425
f 421 425 426
o hull_36
v 244.29780210468965 -478.54026119641543 851.0783399698436
v -247.00303220091047 -499.5670153171851 851.0783399698436
v 250.0002899169922 -471.3967590332032 881.9213256835939
v -249.99977111816406 -471.3967590332032 881.9213256835939
v 250.0002923970208 -456.97808103528865 888.7408587461812
v -249.99976863813546 -456.97808103528865 888.7408587461812
v 250.00028058871277 -522.8552235768989 851.0783399698436
v 242.758036434512 -466.5744977782854 851.0783399698436
v -249.99978044644348 -522.8552235768989 851.0783399698436
v -242.7575242321158 -466.5744977782854 851.0783399698436
v 242.75804138183594 -456.97808103528865 856.7337756325235
v -242.75752258300784 -456.97808103528865 856.7337756325235
f 433 434 439
f 433 439 437
f 433 437 435
f 431 438 435
f 431 435 437
f 436 442 440
f 436 439 434
f 436 434 433
f 436 433 435
f 441 442 436
f 441 436 435
f 441 435 438
f 441 438 440
f 441 440 442
f 432 436 440
f 432 440 438
f 432 438 431
f 432 431 437
f 432 437 439
f 432 439 436
o hull_37
v 250.00027749555835 -539.9182822445434 840.8511464578381
v -249.99978353959793 -539.9182822445434 840.8511464578381
v 244.29780210468965 -478.54026119641543 851.0783399698436
v -247.00303220091047 -499.5670153171851 851.0783399698436
v 242.758036434512 -466.5744977782854 851.0783399698436
v -242.7575378417969 -539.9182822445434 807.054879884139
v -242.7575242321158 -466.5744977782854 851.0783399698436
v 242.75799560546878 -539.9182822445434 807.054879884139
v 250.00028058871277 -522.8552235768989 851.0783399698436
v -249.99978044644348 -522.8552235768989 851.0783399698436
f 443 450 451
f 443 451 452
f 443 452 444
f 448 450 443
f 448 443 444
f 448 444 452
f 447 450 448
f 447 448 449
f 446 448 452
f 446 449 448
f 445 447 449
f 445 449 446
f 445 446 452
f 445 452 451
f 445 451 450
f 445 450 447
o hull_38
v 242.7582054507837 -616.0182643799967 750.6159267798653
v -248.12237609264602 -647.9328972771933 750.6159267798653
v 250.00027749555835 -539.9182822445434 840.8511464578381
v -249.99978353959793 -539.9182822445434 840.8511464578381
v -249.99980163574222 -634.3933105468751 773.0105590820314
v 250.0002593994141 -634.3933105468751 773.0105590820314
v -249.99978637695313 -555.5702514648438 831.4697265625
v 242.7579956051682 -616.0170159890737 750.6159267798653
v 250.00027465820315 -555.5702514648438 831.4697265625
v -242.75753784269872 -616.0170159890737 750.6159267798653
v 242.75799560546878 -539.9182822445434 807.054879884139
v 250.00025421435282 -659.1019320022127 750.6159267798653
v -242.7575378417969 -539.9182822445434 807.054879884139
v -249.99980682080349 -659.1019320022127 750.6159267798653
f 458 464 455
f 463 455 464
f 461 458 455
f 456 459 461
f 456 461 455
f 456 466 459
f 457 459 466
f 457 466 464
f 457 464 458
f 457 458 461
f 457 461 459
f 453 460 463
f 453 463 464
f 465 456 455
f 465 455 463
f 465 466 456
f 462 465 463
f 462 463 460
f 454 462 460
f 454 460 453
f 454 453 464
f 454 464 466
f 454 466 465
f 454 465 462
o hull_39
v -249.99981689453128 -707.1067504882814 707.1068115234376
v 250.000244140625 -707.1067504882814 707.1068115234376
v 242.7582054507837 -616.0182643799967 750.6159267798653
v -248.12237609264602 -647.9328972771933 750.6159267798653
v 242.7579956051682 -616.0170159890737 750.6159267798653
v 250.00023534625404 -726.0984760453623 686.1526924365278
v -242.75753784269872 -616.0170159890737 750.6159267798653
v -249.99982568890223 -726.0984760453623 686.1526924365278
v -242.7575836181641 -687.0485925087585 686.1526924365278
v 242.75798014354257 -687.0485925087585 686.1526924365278
v -249.99980682080349 -659.1019320022127 750.6159267798653
v 250.00025421435282 -659.1019320022127 750.6159267798653
f 475 476 472
f 475 472 474
f 475 474 473
f 471 476 475
f 471 475 473
f 471 472 476
f 470 473 474
f 470 474 477
f 468 472 478
f 469 471 473
f 469 473 470
f 469 470 477
f 469 477 478
f 469 478 472
f 469 472 471
f 467 468 478
f 467 478 477
f 467 477 474
f 467 474 472
f 467 472 468
o hull_40
v 250.00022191586393 -755.1018332137543 654.152451163029
v 250.00023534625404 -726.0984760453623 686.1526924365278
v -249.99982568890223 -726.0984760453623 686.1526924365278
v -249.99983911929232 -755.1018332137543 654.152451163029
v -242.75758723467254 -755.1018332137543 609.9687585447667
v -242.7575836181641 -687.0485925087585 686.1526924365278
v 242.75798014354257 -687.0485925087585 686.1526924365278
v 242.75794862359876 -755.1018332137543 609.9687585447667
f 479 486 480
f 481 482 479
f 481 479 480
f 485 484 481
f 485 481 480
f 485 480 486
f 483 484 485
f 483 485 486
f 483 486 479
f 483 479 482
f 483 482 481
f 483 481 484
o hull_41
v 155.037354846817 -841.0516561155041 539.583614924014
v 250.0001802074358 -841.0516491674521 539.583614924014
v -249.9998808277226 -841.0516561155041 539.583614924014
v -242.75762933017748 -807.3030096162672 539.583614924014
v 242.75793459176379 -807.3030096162672 539.583614924014
v -249.99987792968753 -831.4696044921876 555.5703125000001
v 242.75794862359876 -755.1018332137543 609.9687585447667
v 250.00018310546878 -831.4696044921876 555.5703125000001
v 250.00022191586393 -755.1018332137543 654.152451163029
v -249.99984741210938 -773.0104370117188 634.3933715820313
v 250.00021362304688 -773.0104370117188 634.3933715820313
v -242.75758723467254 -755.1018332137543 609.9687585447667
v -249.99983911929232 -755.1018332137543 654.152451163029
f 490 489 499
f 488 495 497
f 496 497 495
f 496 495 499
f 498 490 499
f 494 488 497
f 491 495 488
f 492 494 497
f 492 497 496
f 492 496 499
f 492 499 489
f 487 494 492
f 487 492 489
f 487 489 490
f 487 490 491
f 487 491 488
f 487 488 494
f 493 491 490
f 493 490 498
f 493 498 499
f 493 499 495
f 493 495 491
o hull_42
v -249.008919526885 -884.0003136505084 457.7410253233897
v 242.75790405276763 -856.3728103986306 457.7410253233897
v -249.9998931884766 -881.9212036132813 471.3968505859375
v 250.0001678466797 -881.9212036132813 471.3967895507813
v 155.037354846817 -841.0516561155041 539.583614924014
v 250.0001802074358 -841.0516491674521 539.583614924014
v -249.9998808277226 -841.0516561155041 539.583614924014
v -242.75762933017748 -807.3030096162672 539.583614924014
v -242.75762939453125 -856.3728469816317 457.7410253233897
v -249.99989788610915 -888.3799316501144 457.7410253233897
v 250.00016314906816 -888.3799027826188 457.7410253233897
v 242.75793459176379 -807.3030096162672 539.583614924014
f 505 510 511
f 507 509 506
f 501 508 507
f 501 507 511
f 501 511 510
f 503 510 505
f 500 507 508
f 500 508 501
f 500 501 510
f 500 510 509
f 500 509 507
f 504 505 511
f 504 511 507
f 504 507 506
f 502 503 505
f 502 505 504
f 502 504 506
f 502 506 509
f 502 509 510
f 502 510 503
o hull_43
v 250.00015670958163 -897.2334883625274 439.0217021165983
v -249.99990432557465 -897.2334883625274 439.02176315175444
v -249.008919526885 -884.0003136505084 457.7410253233897
v 242.75790405276763 -856.3728103986306 457.7410253233897
v -242.7576752268732 -897.2334883625274 371.26843187430575
v -242.75762939453125 -856.3728469816317 457.7410253233897
v -249.99989788610915 -888.3799316501144 457.7410253233897
v 242.7578886260211 -897.2334883625274 371.26837083914944
v 250.00016314906816 -888.3799027826188 457.7410253233897
f 513 518 516
f 520 518 513
f 520 513 512
f 519 515 520
f 519 520 512
f 519 512 513
f 519 513 516
f 519 516 515
f 517 515 516
f 514 517 516
f 514 516 518
f 514 518 520
f 514 520 515
f 514 515 517
o hull_44
v 246.6442075222935 -929.2188216774484 327.9634295646218
v 242.7576198613366 -929.2188216774484 281.875415277254
v 250.00013732910162 -923.8795166015625 382.6834411621094
v -249.9999237060547 -923.8795166015625 382.6835021972656
v 242.75784301757815 -929.2188110351564 281.8754577636719
v 250.00015670958163 -897.2334883625274 439.0217021165983
v -249.99990432557465 -897.2334883625274 439.02176315175444
v -242.75769042970856 -929.2188216774484 281.8754763123822
v -249.99992863462276 -929.2188216774484 367.76116822303834
v 250.00013240053357 -929.2188216774484 367.7611071878821
v 242.7578886260211 -897.2334883625274 371.26837083914944
v -242.7576752268732 -897.2334883625274 371.26843187430575
f 523 530 526
f 528 532 522
f 528 529 527
f 528 527 532
f 521 525 526
f 521 526 530
f 521 530 529
f 521 529 528
f 521 528 522
f 521 522 525
f 531 525 522
f 531 522 532
f 531 532 527
f 531 527 526
f 531 526 525
f 524 527 529
f 524 529 530
f 524 530 523
f 524 523 526
f 524 526 527
o hull_45
v 250.00011102755673 -952.3729796342785 303.0496750795563
v -249.9999500075996 -952.3729796342785 303.0497361147126
v 246.6442075222935 -929.2188216774484 327.9634295646218
v 242.7576198613366 -929.2188216774484 281.875415277254
v -242.75769042970856 -929.2188216774484 281.8754763123822
v -249.99992863462276 -929.2188216774484 367.76116822303834
v 250.00013240053357 -929.2188216774484 367.7611071878821
v -242.75773620604244 -952.3729796342785 189.43882177109552
v 242.75782775873336 -952.3729796342785 189.4387912535092
f 534 533 538
f 534 538 540
f 539 538 533
f 541 539 533
f 541 533 534
f 541 534 540
f 541 540 536
f 537 536 540
f 537 540 538
f 535 541 536
f 535 536 537
f 535 537 538
f 535 538 539
f 535 539 541
o hull_46
v -246.4383450875333 -966.2946769892612 194.37839361558918
v 224.33687234324884 -952.3729796342785 194.37839361558918
v 244.97389315542017 -952.3729796342785 225.87740170978955
v -243.32108859986818 -953.4559153420369 194.37839361558918
v -243.05815117211546 -952.3729796342785 194.37839361558918
v -243.11246994157398 -952.5966965900603 194.37839361558918
v 246.43844986731418 -966.2946769892612 194.37839361558918
v -249.9999500075996 -952.3729796342785 303.0497361147126
v 250.00011102755673 -952.3729796342785 303.0496750795563
v 250.00010681152347 -956.9403686523438 290.2846984863282
v -249.99995422363284 -956.9403686523438 290.2847595214844
v 250.00010082553231 -966.2946769892612 252.94014704294383
v -249.99996020962396 -966.2946769892612 252.94019610611784
v 243.0582379333025 -952.3729849986164 194.37839361558918
f 553 548 550
f 551 553 550
f 555 550 548
f 542 548 553
f 542 553 554
f 542 554 549
f 552 549 554
f 552 554 553
f 552 553 551
f 552 551 550
f 552 550 549
f 547 549 546
f 544 543 546
f 544 546 549
f 544 549 550
f 544 550 555
f 544 555 543
f 545 547 546
f 545 546 543
f 545 543 555
f 545 555 548
f 545 548 542
f 545 542 549
f 545 549 547
o hull_47
v 224.33687234324884 -952.3729796342785 194.37839361558918
v -242.75773620604244 -952.3729796342785 189.43882177109552
v -243.11246994157398 -952.5966965900603 194.37839361558918
v -243.05815117211546 -952.3729796342785 194.37839361558918
v -243.32108859986818 -953.4559153420369 194.37839361558918
v -246.4383450875333 -966.2946769892612 194.37839361558918
v 246.43844986731418 -966.2946769892612 194.37839361558918
v 243.0582379333025 -952.3729849986164 194.37839361558918
v -242.75773620605472 -966.2946769892612 95.58630978115691
v 242.75779737349458 -966.2946769892612 95.58626407093155
v 242.75782775873336 -952.3729796342785 189.4387912535092
f 563 562 565
f 566 556 563
f 566 563 565
f 566 565 557
f 564 557 565
f 564 565 562
f 564 562 561
f 559 557 564
f 559 556 566
f 559 566 557
f 558 559 564
f 560 558 564
f 560 564 561
f 560 561 562
f 560 562 563
f 560 563 556
f 560 556 559
f 560 559 558
o hull_48
v 250.00009155273438 -980.7852783203126 195.09033203125
v -249.99996948242188 -980.7852783203126 195.09036254882815
v 250.00010082553231 -966.2946769892612 252.94014704294383
v -244.89084151233374 -995.0375546326046 99.0091054378379
v 250.00006134700877 -995.0375479117232 99.0091054378379
v -249.9999996881619 -995.0375546788613 99.0091054378379
v -249.99996020962396 -966.2946769892612 252.94019610611784
v -242.88344468694547 -966.2946769892612 99.0091054378379
v 242.88350922767347 -966.2946769892612 99.0091054378379
v 249.9214792295648 -994.7201642362838 99.0091054378379
f 574 572 573
f 567 569 573
f 571 569 567
f 568 567 573
f 568 573 572
f 568 572 567
f 570 571 567
f 570 567 572
f 575 574 573
f 575 573 569
f 576 575 569
f 576 569 571
f 576 571 570
f 576 570 572
f 576 572 574
f 576 574 575
o hull_49
v -249.9999996881619 -995.0375546788613 99.0091054378379
v -243.0741756064238 -972.0862758211991 4.282134479630601
v 250.00006134700877 -995.0375479117232 99.0091054378379
v -244.89084151233374 -995.0375546326046 99.0091054378379
v -242.88344468694547 -966.2946769892612 99.0091054378379
v 249.9214792295648 -994.7201642362838 99.0091054378379
v 242.75779737349458 -966.2946769892612 95.58626407093155
v 242.75778266893255 -970.8206980588672 4.282134479630601
v -220.9140707417565 -970.8206999777522 4.282134479630601
v -242.7577799229097 -970.8207000789296 4.282134479630601
v 250.00006103515628 -995.1846923828125 98.01713562011719
v -242.75773620605472 -966.2946769892612 95.58630978115691
v 242.88350922767347 -966.2946769892612 99.0091054378379
v -250.00002918434495 -999.789631802266 4.282134479630601
v 250.00003185082448 -999.7896297251771 4.282134479630601
v -250.00000000000003 -995.1846923828125 98.01718139648438
f 577 581 590
f 589 591 584
f 587 591 579
f 578 590 581
f 578 581 586
f 588 586 581
f 582 579 591
f 582 591 589
f 580 587 579
f 580 579 582
f 580 582 589
f 580 589 581
f 580 581 577
f 592 587 580
f 592 580 577
f 592 577 590
f 592 590 591
f 592 591 587
f 583 588 581
f 583 581 589
f 583 589 584
f 583 586 588
f 585 583 584
f 585 584 591
f 585 591 590
f 585 590 578
f 585 578 586
f 585 586 583
o hull_50
v 250.00003037616688 -999.9776869958861 -0.45420955135011515
v 242.79134074925287 -971.1429892205255 -0.45420955135011515
v 250.00003051757815 -1000.0000000000001 -0.000021060044673504308
v -243.0741756064238 -972.0862758211991 4.282134479630601
v 242.75778266893255 -970.8206980588672 4.282134479630601
v -220.9140707417565 -970.8206999777522 4.282134479630601
v -242.7577799229097 -970.8207000789296 4.282134479630601
v -250.00003051757815 -1000.0000000000001 0.000021060044673504308
v 242.75778176397662 -971.0087540210122 -0.45420955135011515
v 240.4408958104876 -971.0087540102807 -0.45420955135011515
v -250.00002918434495 -999.789631802266 4.282134479630601
v 250.00003185082448 -999.7896297251771 4.282134479630601
v -250.00003065900253 -999.9776849258121 -0.45420955135011515
v -242.75778205524355 -971.0087520105847 -0.45420955135011515
f 595 604 603
f 595 593 604
f 596 599 606
f 596 606 605
f 596 605 603
f 598 599 596
f 598 596 603
f 598 603 604
f 598 604 597
f 598 597 606
f 598 606 599
f 602 606 597
f 602 597 601
f 594 601 597
f 594 597 604
f 594 604 593
f 594 593 605
f 594 605 606
f 594 606 602
f 594 602 601
f 600 595 603
f 600 603 605
f 600 605 593
f 600 593 595
o hull_51
v 250.00000088301513 -995.324021574093 -95.1810901709643
v 250.00003037616688 -999.9776869958861 -0.45420955135011515
v -250.0000601521554 -995.324019330426 -95.1810901709643
v 242.79134074925287 -971.1429892205255 -0.45420955135011515
v -242.7577972423172 -966.3547788059672 -95.1810901709643
v 242.75778176397662 -971.0087540210122 -0.45420955135011515
v 240.4408958104876 -971.0087540102807 -0.45420955135011515
v -250.00003065900253 -999.9776849258121 -0.45420955135011515
v -242.75778205524355 -971.0087520105847 -0.45420955135011515
v 242.75773620605472 -966.3547855961627 -95.1810901709643
f 607 616 608
f 614 609 607
f 614 607 608
f 611 612 616
f 611 616 607
f 611 607 609
f 611 609 614
f 611 614 615
f 610 608 616
f 610 616 612
f 613 611 615
f 613 615 614
f 613 614 608
f 613 608 610
f 613 610 612
f 613 612 611
o hull_52
v 246.44765797813156 -142.8564162481398 -974.1870928048421
v -246.2140954748417 -142.8564162481398 -973.2414610931612
v 249.99974060058597 -195.09031677246094 -980.785400390625
v -250.0003204345703 -195.09031677246094 -980.785400390625
v 242.7574920654297 -207.0083642180248 -947.9721548726296
v 249.99974060058597 -142.8564162481398 -988.533550929572
v -242.75804138183594 -207.0083642180248 -947.9721548726296
v 242.7574845247748 -142.8564162481398 -959.2829417587037
v -250.0003204345703 -142.8564162481398 -988.533550929572
v -242.75804892249084 -142.8564162481398 -959.2829417587037
v -250.00031852421625 -207.0083642180248 -977.800090127124
v 249.99974251094002 -207.0083642180248 -977.800090127124
f 628 622 621
f 623 625 627
f 623 627 628
f 623 628 621
f 624 626 623
f 624 623 621
f 620 627 625
f 618 623 626
f 618 625 623
f 617 624 621
f 617 621 622
f 617 622 625
f 617 625 618
f 617 618 626
f 617 626 624
f 619 620 625
f 619 625 622
f 619 622 628
f 619 628 627
f 619 627 620
o hull_53
v 249.99975585937503 -290.2846984863282 -956.9404907226564
v -250.00030517578128 -290.2846984863282 -956.9404907226564
v 249.79850190065093 -292.5442948445381 -955.2780274497223
v -243.52451373759044 -292.5442948445381 -928.653858192566
v 242.75749569427103 -292.5442948445381 -925.4015589442186
v 249.99974251094002 -207.0083642180248 -977.800090127124
v -242.75804138183594 -292.5442948445381 -925.4015589442186
v 242.7574920654297 -207.0083642180248 -947.9721548726296
v -250.00031852421625 -207.0083642180248 -977.800090127124
v -242.75804138183594 -207.0083642180248 -947.9721548726296
v -250.00030517578128 -292.5442948445381 -956.1319929148951
v 249.99975585937503 -292.5442948445381 -956.1319929148951
f 635 638 637
f 636 638 635
f 636 635 633
f 636 633 634
f 636 634 637
f 636 637 638
f 631 640 634
f 631 634 633
f 630 639 637
f 632 635 637
f 632 637 639
f 632 639 640
f 632 640 631
f 632 631 633
f 632 633 635
f 629 630 637
f 629 637 634
f 629 634 640
f 629 640 639
f 629 639 630
o hull_54
v -250.00029551470348 -438.8521356766651 -897.3138002933648
v 249.9997655204528 -438.8521356766651 -897.3138002933648
v -242.75804138183594 -371.04425538141913 -897.3138002933648
v 242.75752239482892 -371.04425538141913 -897.3138002933648
v 242.75752258300784 -449.53379290781436 -860.2546672306873
v 249.99976735770966 -449.53379290781436 -892.2617480413079
v -242.75804138183594 -449.53379290781436 -860.2546672306873
v -250.0002936774466 -449.53379290781436 -892.2617480413079
f 641 648 643
f 646 648 641
f 646 641 642
f 644 645 646
f 644 646 642
f 644 642 641
f 644 641 643
f 647 645 644
f 647 644 643
f 647 643 648
f 647 648 646
f 647 646 645
o hull_55
v 249.79850190065093 -292.5442948445381 -955.2780274497223
v -243.52451373759044 -292.5442948445381 -928.653858192566
v -250.00029551470348 -438.8521356766651 -897.3138002933648
v 249.9997655204528 -438.8521356766651 -897.3138002933648
v -242.75804138183594 -371.04425538141913 -897.3138002933648
v -250.00030517578128 -382.6834411621094 -923.8796386718751
v 249.99975585937503 -382.6834411621094 -923.8796386718751
v 242.75749569427103 -292.5442948445381 -925.4015589442186
v 249.99975585937503 -292.5442948445381 -956.1319929148951
v -242.75804138183594 -292.5442948445381 -925.4015589442186
v -250.00030517578128 -292.5442948445381 -956.1319929148951
v 242.75752239482892 -371.04425538141913 -897.3138002933648
f 655 657 652
f 654 659 657
f 654 657 655
f 649 656 652
f 649 652 657
f 651 659 654
f 651 654 655
f 651 655 652
f 660 652 656
f 653 658 651
f 653 651 652
f 653 652 660
f 653 660 656
f 653 656 658
f 650 658 656
f 650 656 649
f 650 649 657
f 650 657 659
f 650 659 651
f 650 651 658
o hull_56
v -250.00025425645697 -658.9012910788159 -750.7977774635369
v 249.99980677869934 -658.9012910788159 -750.7977774635369
v -248.37162954640593 -686.6224581232918 -716.8912911600315
v 242.75758361805936 -686.6224581232918 -686.6228270443497
v -242.75799560546878 -615.772127865852 -750.7977774635369
v -242.75798034671462 -686.6224581232918 -686.6228270443497
v -250.00024843921818 -686.6224581232918 -725.6727277285647
v 242.7575378417969 -615.772127865852 -750.7977774635369
v 249.9998125959381 -686.6224581232918 -725.6727277285647
f 661 667 665
f 669 667 661
f 669 661 662
f 668 664 669
f 668 669 662
f 668 662 661
f 668 661 665
f 666 664 668
f 666 668 665
f 663 666 665
f 663 665 667
f 663 667 669
f 663 669 664
f 663 664 666
o hull_57
v -250.00025425645697 -658.9012910788159 -750.7977774635369
v 249.99980677869934 -658.9012910788159 -750.7977774635369
v -242.75799560546878 -615.772127865852 -750.7977774635369
v -250.0002593994141 -634.3933105468751 -773.0105590820314
v 249.99979651001337 -607.9150870994462 -792.6481488574753
v -250.0002645251429 -607.9150870994462 -792.6481488574753
v 249.99980163574222 -634.3933105468751 -773.0105590820314
v 242.7575378417969 -559.3434908703625 -792.6481488574753
v 242.7575378417969 -615.772127865852 -750.7977774635369
v -242.75799560546878 -559.3434908703625 -792.6481488574753
f 674 677 671
f 676 674 671
f 678 672 670
f 678 670 671
f 678 671 677
f 679 672 678
f 679 678 677
f 679 677 674
f 679 674 675
f 679 675 670
f 679 670 672
f 673 670 675
f 673 675 674
f 673 674 676
f 673 676 671
f 673 671 670
o hull_58
v -250.00027465820315 -555.5702514648438 -831.4697265625
v 249.99977111816406 -471.3967590332032 -881.9213256835939
v -250.0002899169922 -471.3967590332032 -881.9213256835939
v 249.99978637695313 -555.5702514648438 -831.4697265625
v 242.7575378417969 -559.3434908703625 -792.6481488574753
v 249.99976735770966 -449.53379290781436 -892.2617480413079
v -242.75799560546878 -559.3434908703625 -792.6481488574753
v 242.75752258300784 -449.53379290781436 -860.2546672306873
v -250.0002936774466 -449.53379290781436 -892.2617480413079
v -242.75804138183594 -449.53379290781436 -860.2546672306873
v -250.0002645251429 -607.9150870994462 -792.6481488574753
v 249.99979651001337 -607.9150870994462 -792.6481488574753
f 687 691 685
f 684 691 687
f 681 685 691
f 681 691 683
f 680 683 691
f 680 691 690
f 680 690 688
f 689 688 690
f 689 687 685
f 689 685 688
f 682 680 688
f 682 688 685
f 682 685 681
f 682 681 683
f 682 683 680
f 686 689 690
f 686 690 691
f 686 691 684
f 686 684 687
f 686 687 689
o hull_59
v 249.99988917061557 -868.6365640294051 -493.5609469383944
v 118.34260340599049 -868.6365640294051 -493.5609469383944
v -250.00017186454883 -868.6365370792299 -493.5609469383944
v 136.19671620772672 -870.4381008379844 -490.55526242917284
v 249.99988971547978 -870.4381008379844 -490.55526242917284
v -242.7579174269186 -834.9032056358631 -493.5609469383944
v 242.7576451974345 -870.4381008379844 -428.00258830835327
v -250.0001713196765 -870.4381008379844 -490.5552152860039
v -247.64235602671874 -857.6541725882981 -493.5609469383944
v 242.75762939453125 -834.9032261865594 -493.5609469383944
v -242.75789878509997 -870.4381008379844 -428.00252727319696
f 696 692 698
f 702 694 699
f 701 697 702
f 701 702 698
f 701 698 692
f 693 699 694
f 700 702 697
f 700 697 701
f 700 701 692
f 700 692 693
f 700 693 694
f 700 694 702
f 695 693 692
f 695 692 696
f 695 696 698
f 695 698 702
f 695 702 699
f 695 699 693
o hull_60
v 244.25641486953668 -800.2694092583098 -559.1192713329851
v 249.99987792968753 -831.4696044921876 -555.5703125000001
v -250.00018310546878 -831.4696044921876 -555.5703125000001
v 249.99988917061557 -868.6365640294051 -493.5609469383944
v 118.34260340599049 -868.6365640294051 -493.5609469383944
v -247.64235602671874 -857.6541725882981 -493.5609469383944
v 242.75762939453125 -834.9032261865594 -493.5609469383944
v 242.7576176464147 -792.8143804271537 -559.1192713329851
v 249.9998765556527 -828.8375171155375 -559.1192713329851
v -242.75793848635138 -792.8143804271537 -559.1192713329851
v -250.00018447950362 -828.8375171155375 -559.1192713329851
v -242.7579174269186 -834.9032056358631 -493.5609469383944
v -250.00017186454883 -868.6365370792299 -493.5609469383944
f 713 715 712
f 705 715 713
f 710 709 706
f 714 709 710
f 714 710 712
f 707 715 705
f 704 706 707
f 704 707 705
f 704 705 713
f 704 713 711
f 704 711 706
f 703 710 706
f 703 706 711
f 703 711 713
f 703 713 712
f 703 712 710
f 708 714 712
f 708 712 715
f 708 715 707
f 708 707 706
f 708 706 709
f 708 709 714
o hull_61
v 249.99985438937972 -786.376026280462 -616.3719614593452
v -250.00020664577653 -786.376026280462 -616.3719614593452
v 244.25641486953668 -800.2694092583098 -559.1192713329851
v -242.75794998309007 -750.2942169544112 -616.3719614593452
v 242.7576176464147 -792.8143804271537 -559.1192713329851
v 242.7575836181641 -750.2942169544112 -616.3719614593452
v -242.75793848635138 -792.8143804271537 -559.1192713329851
v 249.9998765556527 -828.8375171155375 -559.1192713329851
v -250.00018447950362 -828.8375171155375 -559.1192713329851
f 717 724 719
f 723 724 717
f 723 717 716
f 721 723 716
f 721 716 717
f 721 717 719
f 722 720 721
f 722 721 719
f 722 719 724
f 718 721 720
f 718 720 722
f 718 722 724
f 718 724 723
f 718 723 721
o hull_62
v -248.37162954640593 -686.6224581232918 -716.8912911600315
v 242.75758361805936 -686.6224581232918 -686.6228270443497
v 249.99985438937972 -786.376026280462 -616.3719614593452
v -250.00020664577653 -786.376026280462 -616.3719614593452
v 249.99984741210938 -773.0104370117188 -634.3933715820313
v -250.00021362304688 -773.0104370117188 -634.3933715820313
v 249.99981689453128 -707.1067504882814 -707.1068115234376
v -250.000244140625 -707.1067504882814 -707.1068115234376
v -242.75798034671462 -686.6224581232918 -686.6228270443497
v -250.00024843921818 -686.6224581232918 -725.6727277285647
v 242.7575836181641 -750.2942169544112 -616.3719614593452
v 249.9998125959381 -686.6224581232918 -725.6727277285647
v -242.75794998309007 -750.2942169544112 -616.3719614593452
f 735 727 736
f 731 732 734
f 731 734 736
f 729 731 736
f 729 736 727
f 726 735 736
f 725 733 726
f 725 726 736
f 725 736 734
f 728 734 732
f 730 728 732
f 730 732 731
f 730 731 729
f 730 729 727
f 730 727 728
f 737 728 727
f 737 727 735
f 737 735 726
f 737 726 733
f 737 733 725
f 737 725 734
f 737 734 728
o hull_63
v 249.9999273675164 -927.8461171830783 -371.5976140941362
v 249.9999304176581 -931.1504516120979 -362.36263290996294
v -250.00013366766007 -927.8460953443149 -371.5976140941362
v -250.00013061749817 -931.1504516120979 -362.3625718748067
v -242.75784174461134 -931.1504516120979 -274.16391264539845
v -202.25363151029666 -931.1504516120979 -274.16391519133214
v 242.75769424858794 -931.1504516120979 -274.16397113462114
v 242.7576751708722 -897.1156992932418 -371.5976140941362
v -242.7578887939649 -897.1156704257277 -371.5976140941362
f 739 741 738
f 739 738 744
f 740 738 741
f 742 746 740
f 742 740 741
f 745 746 744
f 745 744 738
f 745 738 740
f 745 740 746
f 743 742 741
f 743 741 739
f 743 739 744
f 743 744 746
f 743 746 742
o hull_64
v -250.0001678466797 -881.9212036132813 -471.3967895507813
v 136.19671620772672 -870.4381008379844 -490.55526242917284
v 249.99988971547978 -870.4381008379844 -490.55526242917284
v -250.0001713196765 -870.4381008379844 -490.5552152860039
v 242.7576751708722 -897.1156992932418 -371.5976140941362
v 249.9998931884766 -881.9212036132813 -471.3968505859375
v -242.7578887939649 -897.1156704257277 -371.5976140941362
v -250.00013732910162 -923.8795166015625 -382.6834411621094
v 249.9999237060547 -923.8795166015625 -382.6835021972656
v 242.7576451974345 -870.4381008379844 -428.00258830835327
v -250.00013366766007 -927.8460953443149 -371.5976140941362
v 249.9999273675164 -927.8461171830783 -371.5976140941362
v -242.75789878509997 -870.4381008379844 -428.00252727319696
f 748 752 750
f 748 749 752
f 751 758 749
f 759 753 751
f 759 750 753
f 755 752 749
f 755 749 758
f 755 758 754
f 757 754 758
f 757 758 751
f 757 751 753
f 757 753 750
f 747 754 757
f 747 757 750
f 747 750 752
f 747 752 755
f 747 755 754
f 756 759 751
f 756 751 749
f 756 749 748
f 756 748 750
f 756 750 759
o hull_65
v 249.99994824286105 -950.4611713251211 -308.39287378496755
v -250.00011279229525 -950.4611713251211 -308.39281274981136
v -242.75782901869036 -950.4611713251211 -197.07116148301688
v 202.6692537050151 -950.4611713251211 -197.07118948079244
v 242.75773242635086 -950.4611713251211 -197.0711945203975
v 249.9999304176581 -931.1504516120979 -362.36263290996294
v -250.00013061749817 -931.1504516120979 -362.3625718748067
v -242.75784174461134 -931.1504516120979 -274.16391264539845
v -202.25363151029666 -931.1504516120979 -274.16391519133214
v 242.75769424858794 -931.1504516120979 -274.16397113462114
f 761 762 766
f 765 760 761
f 765 761 766
f 767 766 762
f 764 760 765
f 764 765 769
f 768 764 769
f 768 769 765
f 768 765 766
f 768 766 767
f 763 768 767
f 763 767 762
f 763 762 761
f 763 761 760
f 763 760 764
f 763 764 768
o hull_66
v 242.75773242635086 -950.4611713251211 -197.0711945203975
v 202.6692537050151 -950.4611713251211 -197.07118948079244
v -242.75782901869036 -950.4611713251211 -197.07116148301688
v -250.00011279229525 -950.4611713251211 -308.39281274981136
v 249.99994824286105 -950.4611713251211 -308.39287378496755
v 249.9999501191903 -952.4938700929467 -302.7118704612418
v -250.000110915966 -952.4938700929467 -302.71180942608555
v -242.75782749494874 -952.4938700929467 -188.62383031019107
v 242.75773620605472 -952.4938700929467 -188.62386095968935
f 775 774 778
f 773 774 775
f 773 775 776
f 777 772 773
f 777 773 776
f 777 776 775
f 777 775 778
f 770 778 774
f 771 770 774
f 771 774 773
f 771 773 772
f 771 772 777
f 771 777 778
f 771 778 770
o hull_67
v -242.75782749494874 -952.4938700929467 -188.62383031019107
v -250.000110915966 -952.4938700929467 -302.71180942608555
v 249.9999501191903 -952.4938700929467 -302.7118704612418
v 249.99995422363284 -956.9403686523438 -290.2847595214844
v -250.00009155273438 -980.7852783203126 -195.09033203125
v 249.99996948242188 -980.7852783203126 -195.09036254882815
v 242.75773620605472 -966.3547855961627 -95.1810901709643
v -250.00006103515628 -995.1846923828125 -98.01713562011719
v 250.00000000000003 -995.1846923828125 -98.01718139648438
v -250.00010681152347 -956.9403686523438 -290.2846984863282
v 242.75773620605472 -952.4938700929467 -188.62386095968935
v -242.7577972423172 -966.3547788059672 -95.1810901709643
v -250.0000601521554 -995.324019330426 -95.1810901709643
v 250.00000088301513 -995.324021574093 -95.1810901709643
f 785 792 781
f 788 783 780
f 788 780 781
f 782 784 783
f 782 783 788
f 782 788 781
f 782 781 792
f 787 784 782
f 787 782 792
f 787 783 784
f 789 785 781
f 789 781 780
f 789 780 779
f 791 780 783
f 791 787 792
f 786 791 783
f 786 783 787
f 786 787 791
f 790 791 792
f 790 792 785
f 790 785 789
f 790 789 779
f 790 779 780
f 790 780 791
