o hull_0
v -1.8271749 -0.12255955 -0.12717785
v -0.60757124 0.711906 0.06539114
v -0.5433816 0.711906 0.06539114
v -0.60757124 0.711906 0.0012014806
v -1.8271749 -0.12255955 -0.06298819
v -0.5433816 0.711906 0.0012014806
v -0.5433816 0.3267681 0.06539114
v -0.5433816 0.3267681 0.0012014806
v -0.60757124 0.5835268 -0.12717785
v -0.60757124 0.3267681 -0.12717785
v -0.6717609 0.64771646 -0.12717785
v -0.80014026 0.19838876 0.06539114
v -0.80014026 0.19838876 0.0012014806
v -1.1210885 0.07000941 -0.12717785
v -1.5062265 -0.12255955 0.06539114
v -1.5062265 -0.12255955 0.0012014806
v -1.5704162 -0.12255955 -0.12717785
v -1.6987956 -0.12255955 0.06539114
v -1.7629852 0.64771646 0.06539114
v -1.7629852 0.5835268 0.06539114
v -1.8271749 0.64771646 -0.06298819
v -1.8271749 0.64771646 -0.12717785
f 5 18 20
f 5 20 19
f 5 19 21
f 5 21 22
f 5 22 1
f 2 4 22
f 2 22 21
f 2 21 19
f 6 9 11
f 6 11 22
f 6 22 4
f 6 4 2
f 6 2 3
f 6 3 7
f 6 7 8
f 6 8 10
f 6 10 9
f 14 17 1
f 14 1 22
f 14 22 11
f 14 11 9
f 14 9 10
f 14 10 8
f 16 15 18
f 16 18 5
f 16 5 1
f 16 1 17
f 16 17 14
f 13 16 14
f 13 14 8
f 12 13 8
f 12 8 7
f 12 7 3
f 12 3 2
f 12 2 19
f 12 19 20
f 12 20 18
f 12 18 15
f 12 15 16
f 12 16 13
o hull_1
v -0.5433816 0.3267681 -0.12717785
v 2.2809634 0.64771646 0.0012014806
v 2.2809634 0.64771646 -0.06298819
v 2.2809634 0.45514745 0.0012014806
v -0.5433816 0.3267681 -0.06298819
v 2.2809634 0.45514745 -0.06298819
v 1.9600154 0.84028536 0.12958081
v 1.9600154 0.84028536 -0.19136752
v 1.9600154 0.5193371 0.12958081
v 1.9600154 0.5193371 -0.19136752
v 1.8958257 0.9686647 0.12958081
v 1.8958257 0.45514745 0.12958081
v 1.8958257 0.45514745 -0.19136752
v 1.8958257 0.3267681 -0.06298819
v 1.8958257 0.3267681 -0.12717785
v 1.8316361 1.0328543 -0.12717785
v 1.8316361 1.0328543 -0.19136752
v 1.8316361 0.3267681 0.06539114
v 1.7032567 1.0328543 0.12958081
v 1.7674464 1.0328543 0.12958081
v 1.639067 1.0328543 -0.12717785
v 1.639067 1.0328543 -0.19136752
v 1.1255497 0.26257843 -0.06298819
v 1.1255497 0.26257843 -0.12717785
v 1.06136 0.26257843 0.06539114
v -0.09405398 0.90447503 0.12958081
v -0.09405398 0.90447503 -0.19136752
v -0.28662288 0.45514745 0.12958081
v -0.28662288 0.45514745 -0.19136752
v -0.28662288 0.26257843 -0.12717785
v -0.35081255 0.90447503 0.0012014806
v -0.35081255 0.90447503 -0.06298819
v -0.35081255 0.84028536 0.12958081
v -0.35081255 0.84028536 -0.19136752
v -0.35081255 0.5193371 0.12958081
v -0.35081255 0.5193371 -0.19136752
v -0.35081255 0.26257843 0.06539114
v -0.35081255 0.26257843 0.0012014806
v -0.4791919 0.7760957 -0.12717785
v -0.5433816 0.711906 -0.06298819
v -0.5433816 0.711906 -0.12717785
f 37 46 35
f 45 40 47
f 52 23 51
f 52 51 35
f 52 35 46
f 58 51 23
f 63 56 58
f 63 58 23
f 27 62 63
f 27 63 23
f 25 30 39
f 32 35 51
f 32 51 58
f 32 58 56
f 32 56 49
f 32 49 44
f 32 44 39
f 32 39 30
f 29 31 26
f 29 26 24
f 60 52 46
f 60 46 45
f 60 45 47
f 60 47 59
f 60 59 27
f 60 27 23
f 60 23 52
f 54 44 49
f 54 49 56
f 38 24 25
f 38 25 39
f 38 39 44
f 38 44 43
f 38 43 41
f 38 41 42
f 36 26 40
f 36 40 45
f 36 45 46
f 36 46 37
f 28 32 30
f 28 30 25
f 28 25 24
f 28 24 26
f 28 26 36
f 28 36 37
f 28 37 35
f 28 35 32
f 33 29 24
f 33 24 38
f 33 38 42
f 34 50 59
f 34 59 47
f 34 47 40
f 34 40 26
f 34 26 31
f 57 50 34
f 57 34 31
f 57 31 29
f 57 29 33
f 57 33 42
f 57 42 41
f 57 41 48
f 57 48 55
f 57 55 62
f 57 62 27
f 57 27 59
f 57 59 50
f 53 62 55
f 53 55 48
f 53 48 41
f 53 41 43
f 53 43 44
f 53 44 54
f 61 54 56
f 61 56 63
f 61 63 62
f 61 62 53
f 61 53 54
o hull_2
v -0.35081255 -0.37931824 -0.12717785
v 0.6120323 0.26257843 0.06539114
v 0.6120323 0.26257843 0.0012014806
v 0.6120323 -0.058369935 0.06539114
v -0.35081255 -0.37931824 -0.06298819
v 0.6120323 -0.058369935 0.0012014806
v 0.5478426 0.07000941 -0.06298819
v 0.5478426 0.005819738 -0.06298819
v 0.48365295 -0.058369935 -0.06298819
v 0.41946328 0.26257843 -0.12717785
v 0.41946328 0.19838876 -0.12717785
v -0.35081255 -0.2509389 -0.12717785
v 0.1627047 -0.18674922 -0.12717785
v 0.03432536 0.26257843 -0.12717785
v 0.09851503 -0.4435079 0.06539114
v -0.35081255 -0.2509389 -0.06298819
v 0.09851503 -0.4435079 0.0012014806
v -0.09405398 0.26257843 0.06539114
v -0.09405398 0.26257843 0.0012014806
v -0.09405398 0.005819738 0.12958081
v -0.029864311 0.005819738 0.12958081
v -0.029864311 -0.4435079 0.12958081
v -0.09405398 -0.4435079 0.12958081
v -0.15824366 0.19838876 0.06539114
v -0.15824366 0.19838876 0.0012014806
v -0.15824366 -0.4435079 0.06539114
v -0.15824366 -0.4435079 0.0012014806
v -0.22243333 0.07000941 0.0012014806
v -0.22243333 0.07000941 -0.06298819
v -0.22243333 0.005819738 -0.12717785
v -0.15824366 -0.37931824 -0.12717785
f 83 84 65
f 83 65 81
f 75 92 93
f 68 79 75
f 68 75 64
f 68 86 83
f 68 83 79
f 77 82 81
f 77 81 65
f 77 65 66
f 77 66 73
f 87 83 81
f 87 79 83
f 69 66 65
f 69 65 67
f 70 66 69
f 70 69 71
f 70 71 74
f 70 74 73
f 70 73 66
f 88 87 81
f 88 81 82
f 88 82 77
f 88 77 93
f 88 93 92
f 91 87 88
f 91 88 92
f 91 92 75
f 91 75 79
f 91 79 87
f 72 71 69
f 85 67 65
f 85 65 84
f 85 84 83
f 85 83 86
f 89 86 68
f 90 89 68
f 90 68 64
f 80 90 64
f 80 64 94
f 80 72 69
f 76 94 64
f 76 64 75
f 76 75 93
f 76 93 77
f 76 77 73
f 76 73 74
f 76 74 71
f 76 71 72
f 76 72 80
f 76 80 94
f 78 80 69
f 78 69 67
f 78 67 85
f 78 85 86
f 78 86 89
f 78 89 90
f 78 90 80
o hull_3
v 0.67622197 -0.89283556 -0.12717785
v 0.74041164 -0.89283556 -0.12717785
v 0.67622197 -0.37931824 -0.06298819
v 0.74041164 -0.37931824 -0.06298819
v 0.67622197 -0.89283556 -0.06298819
v 0.74041164 -0.89283556 -0.06298819
v 0.67622197 -0.37931824 -0.12717785
v 0.74041164 -0.37931824 -0.12717785
f 101 102 96
f 101 96 95
f 99 97 101
f 99 101 95
f 99 95 96
f 99 96 100
f 98 97 99
f 98 99 100
f 98 100 96
f 98 96 102
f 98 102 101
f 98 101 97
o hull_4
v 0.74041164 -0.89283556 -0.12717785
v 1.06136 -0.7644562 -0.06298819
v 1.06136 -0.7644562 -0.12717785
v 1.06136 -0.89283556 -0.06298819
v 0.74041164 -0.89283556 -0.06298819
v 1.06136 -0.89283556 -0.12717785
v 0.9971703 -0.37931824 -0.06298819
v 0.9971703 -0.37931824 -0.12717785
v 0.74041164 -0.37931824 -0.06298819
v 0.74041164 -0.37931824 -0.12717785
f 111 109 110
f 111 110 112
f 111 112 103
f 111 103 107
f 106 107 103
f 106 103 108
f 104 109 111
f 104 111 107
f 104 107 106
f 105 104 106
f 105 106 108
f 105 108 103
f 105 103 112
f 105 112 110
f 105 110 109
f 105 109 104
o hull_5
v 0.6120323 -0.058369935 -0.12717785
v 0.67622197 -0.058369935 -0.12717785
v 0.6120323 0.26257843 -0.06298819
v 0.67622197 0.26257843 -0.06298819
v 0.6120323 -0.058369935 -0.06298819
v 0.67622197 -0.058369935 -0.06298819
v 0.6120323 0.26257843 -0.12717785
v 0.67622197 0.26257843 -0.12717785
f 119 120 114
f 119 114 113
f 117 115 119
f 117 119 113
f 117 113 114
f 117 114 118
f 116 115 117
f 116 117 118
f 116 118 114
f 116 114 120
f 116 120 119
f 116 119 115
o hull_6
v 0.67622197 -0.37931824 -0.12717785
v 1.1255497 0.26257843 -0.06298819
v 1.1255497 0.26257843 -0.12717785
v 1.1255497 0.005819738 -0.06298819
v 0.67622197 -0.37931824 -0.06298819
v 1.1255497 0.005819738 -0.12717785
v 0.9971703 -0.37931824 -0.06298819
v 0.9971703 -0.37931824 -0.12717785
v 0.67622197 0.26257843 -0.06298819
v 0.67622197 0.26257843 -0.12717785
f 122 123 130
f 122 130 129
f 125 129 130
f 125 130 121
f 125 121 128
f 125 128 127
f 124 122 129
f 124 129 125
f 124 125 127
f 126 124 127
f 126 127 128
f 126 128 121
f 126 121 130
f 126 130 123
f 126 123 122
f 126 122 124
